<?xml version="1.0" standalone="no"?>
<!DOCTYPE svg PUBLIC "-//W3C//DTD SVG 20010904//EN"
 "http://www.w3.org/TR/2001/REC-SVG-20010904/DTD/svg10.dtd">
<svg version="1.0" xmlns="http://www.w3.org/2000/svg"
 width="1280.000000pt" height="1207.000000pt" viewBox="0 0 1280.000000 1207.000000"
 preserveAspectRatio="xMidYMid meet">
<g transform="translate(0.000000,1207.000000) scale(0.100000,-0.100000)"
fill="#000000" stroke="none">
<path d="M4235 12046 c-34 -12 -75 -32 -92 -44 -50 -35 -134 -132 -216 -247
-64 -91 -77 -115 -81 -158 -4 -29 -20 -230 -36 -447 -38 -488 -84 -1034 -155
-1815 -268 -2958 -358 -4006 -343 -4021 4 -3 82 -1 175 5 249 16 867 29 1673
36 1207 10 1733 32 2310 96 582 64 921 159 1275 357 693 386 1281 1056 1822
2074 97 183 196 388 191 393 -2 2 -192 120 -423 262 -463 286 -752 467 -1815
1136 -1761 1109 -2607 1620 -3472 2096 -257 141 -422 219 -553 260 -38 12 -84
26 -101 31 -45 15 -92 11 -159 -14z m1909 -1831 c281 -74 549 -300 790 -665
532 -807 674 -1600 391 -2186 -121 -250 -358 -466 -646 -590 -88 -37 -393
-118 -415 -110 -13 5 -101 174 -159 304 -32 72 -28 82 38 82 51 0 223 35 301
61 99 33 224 99 305 159 162 121 257 259 307 445 27 99 27 382 0 510 -36 173
-140 487 -155 468 -4 -4 -13 -37 -20 -73 -57 -292 -230 -510 -516 -650 -494
-242 -958 -28 -1246 575 -109 227 -144 378 -144 615 0 197 15 277 82 437 131
311 456 572 791 633 64 12 225 4 296 -15z m2321 -3125 c44 -89 57 -124 50
-135 -11 -17 -2037 -1015 -2060 -1015 -20 0 -140 240 -129 257 12 18 2033
1011 2059 1012 17 1 33 -23 80 -119z"/>
<path d="M5860 9833 c-170 -28 -345 -161 -420 -318 -21 -44 -44 -105 -51 -135
-21 -86 -16 -269 9 -367 74 -287 253 -560 429 -656 l48 -25 231 22 231 21 57
43 c254 192 297 555 111 947 -156 328 -404 508 -645 468z"/>
<path d="M3246 10760 c-268 -504 -581 -1081 -1096 -2025 -1127 -2065 -1491
-2738 -1915 -3539 l-237 -448 5 -137 c19 -493 107 -818 289 -1063 101 -137
209 -208 344 -227 85 -13 128 -6 219 31 223 92 524 292 854 566 124 103 553
484 746 661 165 152 466 454 509 512 53 70 48 45 76 439 11 162 29 414 40 560
11 146 29 393 40 550 11 157 29 404 40 550 11 146 29 393 40 550 11 157 29
404 40 550 25 338 54 738 80 1100 11 157 29 404 40 550 68 923 81 1115 78
1144 -3 26 -33 -24 -192 -324z m-360 -2071 c148 -139 -99 -870 -440 -1304
l-47 -60 48 -5 c26 -3 54 -9 61 -13 113 -72 14 -543 -214 -1015 -241 -502
-594 -928 -939 -1134 -109 -65 -235 -107 -235 -78 0 13 108 378 115 391 4 5
30 9 58 9 176 1 488 265 702 593 203 312 350 789 271 876 -46 50 -116 14 -341
-173 -72 -60 -105 -78 -105 -58 0 4 21 80 47 169 l47 163 115 97 c158 133 214
186 281 268 152 186 278 446 324 669 36 173 3 230 -103 176 -101 -51 -324
-264 -505 -483 -49 -59 -93 -107 -97 -107 -17 0 -8 47 40 207 l48 163 69 77
c231 262 392 417 534 516 128 88 212 106 266 56z"/>
<path d="M7095 10944 c11 -8 175 -112 365 -231 190 -119 638 -401 995 -626
1613 -1018 2452 -1532 2715 -1663 318 -159 709 -313 1202 -473 103 -34 191
-61 195 -61 12 0 -91 102 -242 239 -448 407 -892 720 -1380 972 -147 75 -3474
1675 -3765 1810 -58 27 -96 42 -85 33z"/>
<path d="M11005 7918 c-397 -803 -886 -1497 -1367 -1939 -298 -273 -542 -444
-872 -609 l-170 -85 2 -115 c2 -63 7 -250 12 -415 5 -165 14 -451 20 -635 6
-184 15 -480 20 -657 6 -178 15 -469 20 -648 6 -179 14 -470 20 -647 5 -178
14 -474 20 -658 14 -460 28 -905 36 -1152 4 -119 11 -208 16 -208 16 0 140 84
190 129 63 56 131 161 190 292 26 59 411 775 856 1591 445 815 1247 2286 1781
3267 548 1005 984 1816 998 1857 29 80 27 106 -13 153 -20 24 -46 37 -112 57
-481 142 -967 328 -1396 533 -82 39 -152 71 -155 71 -4 0 -47 -82 -96 -182z
m429 -1667 c3 -4 -26 -90 -64 -190 l-70 -182 -348 -462 c-981 -1301 -1072
-1430 -1219 -1721 -147 -292 -186 -556 -91 -607 36 -19 113 -3 196 41 128 69
244 162 433 347 93 90 129 118 129 98 0 -3 -36 -101 -81 -218 -92 -241 -74
-217 -289 -391 -309 -250 -513 -337 -646 -277 -76 35 -109 110 -107 246 0 50
8 124 17 165 25 114 98 323 160 461 161 355 303 563 1199 1754 174 231 314
421 313 423 -2 1 -175 -67 -384 -153 -210 -85 -388 -155 -397 -155 -8 0 -15 6
-15 14 0 17 128 348 139 359 7 7 1100 456 1113 457 4 0 9 -4 12 -9z"/>
<path d="M8225 5164 c-186 -52 -546 -109 -880 -138 -561 -50 -903 -59 -2290
-61 -1326 -1 -1425 -4 -1728 -50 l-98 -15 -84 -77 c-45 -43 -172 -163 -282
-268 -794 -758 -1287 -1166 -1660 -1374 -149 -84 -365 -171 -422 -171 -39 0
-42 -2 -30 -16 21 -26 284 -196 404 -262 82 -45 931 -389 3360 -1360 1788
-715 3275 -1307 3305 -1316 74 -21 279 -56 328 -56 46 0 210 36 260 57 l34 14
-6 137 c-3 75 -8 223 -11 327 -3 105 -10 345 -15 535 -6 190 -24 824 -40 1410
-16 586 -34 1211 -40 1390 -5 179 -14 519 -20 755 -11 446 -17 556 -28 554 -4
0 -29 -7 -57 -15z m-2733 -1433 c290 -67 541 -268 603 -485 41 -140 -5 -293
-124 -411 -33 -33 -60 -63 -61 -66 0 -3 26 -1 58 4 104 18 346 13 452 -10 220
-48 387 -138 518 -278 161 -172 231 -346 203 -500 -41 -225 -261 -430 -631
-588 -256 -109 -456 -156 -695 -164 -198 -6 -301 7 -457 61 -239 81 -470 271
-566 464 -31 64 -36 86 -40 161 -8 155 30 243 162 380 73 76 78 83 51 77 -16
-3 -83 -9 -147 -13 -374 -20 -694 133 -851 407 -71 125 -75 266 -11 397 132
267 584 509 1099 587 74 11 352 -3 437 -23z"/>
<path d="M4996 3439 c-92 -12 -262 -70 -359 -122 -277 -147 -316 -356 -103
-554 134 -125 260 -168 466 -160 143 6 249 32 387 97 200 93 293 199 293 333
0 87 -34 152 -124 242 -137 136 -339 195 -560 164z"/>
<path d="M5820 2516 c-194 -35 -405 -132 -510 -236 -84 -83 -113 -141 -113
-233 0 -91 47 -188 135 -278 150 -152 312 -218 540 -219 174 0 332 40 498 125
209 109 312 258 281 405 -39 181 -227 356 -451 420 -96 27 -275 35 -380 16z"/>
</g>
</svg>
