<?xml version="1.0" encoding="UTF-8"?>
<!DOCTYPE svg  PUBLIC '-//W3C//DTD SVG 1.1//EN'  'http://www.w3.org/Graphics/SVG/1.1/DTD/svg11.dtd'>
<svg enable-background="new 0 0 52.85 59.3" version="1.1" viewBox="0 0 52.85 59.3" xml:space="preserve" xmlns="http://www.w3.org/2000/svg">
<g clip-rule="evenodd" fill-rule="evenodd">
			<radialGradient id="cn" cx="1074.2" cy="143.74" r="18.043" gradientTransform="matrix(.3287 .7294 .7294 -.3287 -433.98 -691.37)" gradientUnits="userSpaceOnUse">
			<stop stop-color="#5A4412" stop-opacity=".6667" offset="0"/>
			<stop stop-color="#3E2F0B" stop-opacity=".8471" offset=".9882"/>
		</radialGradient>
		<path d="m36.816 46.378c0.133 0.613 0.2 1.347 0.2 2.199-0.08 2.961-1.187 5.454-3.32 7.48-2.16 2.026-4.721 3-7.68 2.92-2.96-0.08-5.454-1.187-7.48-3.319-2.026-2.16-3-4.721-2.919-7.681 0-0.533 0.066-1.16 0.2-1.88 0.933 0.667 2.306 1.227 4.12 1.68 1.867 0.454 3.907 0.707 6.12 0.761 2.427 0.053 4.626-0.121 6.6-0.521 1.919-0.373 3.306-0.919 4.159-1.639z" fill="url(#cn)"/>
			<radialGradient id="cy" cx="1069.3" cy="121.6" r="13.838" gradientTransform="matrix(.3143 .7356 .701 -.3324 -397.5 -703.72)" gradientUnits="userSpaceOnUse">
			<stop stop-color="#6B5116" stop-opacity=".6667" offset="0"/>
			<stop stop-color="#46340D" stop-opacity=".8471" offset=".9882"/>
		</radialGradient>
		<path d="m33.736 44.018c2.053 0.587 3.067 1.254 3.04 2-0.027 0.747-1.08 1.347-3.16 1.8-2.08 0.48-4.573 0.681-7.48 0.6-2.932-0.079-5.413-0.413-7.439-1-2.053-0.586-3.066-1.253-3.04-2 0.026-0.746 1.08-1.346 3.16-1.8 2.08-0.479 4.572-0.68 7.479-0.6 2.933 0.08 5.414 0.414 7.44 1z" fill="url(#cy)"/>
		<path d="m26.136 48.417c2.907 0.081 5.4-0.119 7.48-0.6 2.044-0.445 3.098-1.032 3.16-1.76-0.053 0.809-0.906 1.476-2.56 2-1.921 0.613-4.573 0.867-7.96 0.76-3.387-0.08-6.067-0.479-8.04-1.2-1.76-0.64-2.613-1.373-2.56-2.2-0.026 0.747 0.987 1.414 3.04 2 2.027 0.587 4.508 0.921 7.44 1z" fill="#866A36"/>
				<radialGradient id="bg" cx="1090.7" cy="-31.311" r="2.3045" gradientTransform="matrix(.2083 .7724 .7724 -.2083 -175.93 -798.89)" gradientUnits="userSpaceOnUse">
				<stop stop-color="#fff" offset="0"/>
				<stop stop-color="#B9914A" offset=".1647"/>
				<stop stop-color="#523E10" stop-opacity=".8471" offset=".8588"/>
				<stop stop-color="#775B19" stop-opacity=".8471" offset="1"/>
			</radialGradient>
			<path d="m28.736 50.538c-0.026 0.373-0.187 0.706-0.479 1-0.294 0.266-0.653 0.387-1.081 0.359-0.399 0-0.746-0.146-1.04-0.439-0.292-0.294-0.426-0.627-0.399-1 0-0.4 0.16-0.733 0.48-1 0.293-0.268 0.64-0.387 1.04-0.36 0.426 0 0.773 0.146 1.039 0.44 0.293 0.266 0.44 0.6 0.44 1z" fill="url(#bg)"/>
				<radialGradient id="br" cx="1086.1" cy="-21.026" r="1.3463" gradientTransform="matrix(.208 .7725 .7725 -.208 -191.81 -794.6)" gradientUnits="userSpaceOnUse">
				<stop stop-color="#fff" offset="0"/>
				<stop stop-color="#B9914A" offset=".1647"/>
				<stop stop-color="#523E10" stop-opacity=".8471" offset=".8588"/>
				<stop stop-color="#775B19" stop-opacity=".8471" offset="1"/>
			</radialGradient>
			<path d="m18.817 49.018c-0.027 0.24-0.121 0.44-0.281 0.6-0.187 0.16-0.4 0.227-0.64 0.2-0.24 0-0.44-0.08-0.6-0.24-0.187-0.16-0.266-0.359-0.24-0.6 0-0.213 0.093-0.4 0.28-0.561 0.16-0.159 0.36-0.239 0.6-0.239s0.453 0.08 0.64 0.239c0.16 0.187 0.241 0.387 0.241 0.601z" fill="url(#br)"/>
				<radialGradient id="by" cx="1086.9" cy="-25.984" r="1.3463" gradientTransform="matrix(.208 .7725 .7725 -.208 -184.16 -796.66)" gradientUnits="userSpaceOnUse">
				<stop stop-color="#fff" offset="0"/>
				<stop stop-color="#B9914A" offset=".1647"/>
				<stop stop-color="#523E10" stop-opacity=".8471" offset=".8588"/>
				<stop stop-color="#775B19" stop-opacity=".8471" offset="1"/>
			</radialGradient>
			<path d="m22.776 48.617c0 0.214-0.08 0.4-0.24 0.561-0.187 0.16-0.4 0.239-0.64 0.239s-0.453-0.079-0.64-0.239c-0.16-0.16-0.24-0.36-0.24-0.601 0-0.239 0.093-0.439 0.28-0.6 0.187-0.16 0.4-0.24 0.64-0.24 0.24 0.027 0.439 0.121 0.6 0.28 0.187 0.161 0.267 0.361 0.24 0.6z" fill="url(#by)"/>
				<radialGradient id="bz" cx="1086.5" cy="-34.372" r="1.3463" gradientTransform="matrix(.208 .7725 .7725 -.208 -171.2 -800.15)" gradientUnits="userSpaceOnUse">
				<stop stop-color="#fff" offset="0"/>
				<stop stop-color="#B9914A" offset=".1647"/>
				<stop stop-color="#523E10" stop-opacity=".8471" offset=".8588"/>
				<stop stop-color="#775B19" stop-opacity=".8471" offset="1"/>
			</radialGradient>
			<path d="m29.176 46.577c0 0.214-0.079 0.4-0.239 0.561-0.188 0.16-0.4 0.24-0.641 0.24-0.239 0-0.439-0.08-0.6-0.24-0.187-0.187-0.279-0.387-0.279-0.6 0.026-0.24 0.119-0.44 0.279-0.601 0.187-0.16 0.4-0.227 0.64-0.2 0.24 0 0.44 0.08 0.601 0.24 0.186 0.161 0.266 0.361 0.239 0.6z" fill="url(#bz)"/>
				<radialGradient id="ca" cx="1092.2" cy="-22.625" r="2.2924" gradientTransform="matrix(.2094 .7721 .7721 -.2094 -189.36 -795.32)" gradientUnits="userSpaceOnUse">
				<stop stop-color="#fff" offset="0"/>
				<stop stop-color="#B9914A" offset=".1647"/>
				<stop stop-color="#523E10" stop-opacity=".8471" offset=".8588"/>
				<stop stop-color="#775B19" stop-opacity=".8471" offset="1"/>
			</radialGradient>
			<path d="m23.536 53.178c-0.026 0.373-0.187 0.693-0.479 0.96-0.294 0.267-0.64 0.399-1.04 0.399-0.427-0.026-0.773-0.173-1.041-0.439-0.293-0.294-0.44-0.627-0.44-1 0.027-0.4 0.187-0.733 0.48-1s0.64-0.387 1.04-0.36c0.426 0 0.773 0.147 1.04 0.44 0.293 0.265 0.44 0.599 0.44 1z" fill="url(#ca)"/>
				<radialGradient id="cb" cx="1093.3" cy="-34.525" r="1.3737" gradientTransform="matrix(.2111 .7716 .7716 -.2111 -171.02 -800.43)" gradientUnits="userSpaceOnUse">
				<stop stop-color="#fff" offset="0"/>
				<stop stop-color="#B9914A" offset=".1647"/>
				<stop stop-color="#523E10" stop-opacity=".8471" offset=".8588"/>
				<stop stop-color="#775B19" stop-opacity=".8471" offset="1"/>
			</radialGradient>
			<path d="m34.136 50.737c0 0.24-0.093 0.44-0.279 0.601-0.16 0.16-0.373 0.239-0.64 0.239-0.241-0.026-0.44-0.119-0.601-0.279-0.187-0.16-0.28-0.36-0.28-0.6 0.026-0.24 0.12-0.44 0.28-0.601 0.188-0.16 0.4-0.239 0.641-0.239 0.266 0.026 0.479 0.119 0.64 0.279 0.186 0.161 0.266 0.361 0.239 0.6z" fill="url(#cb)"/>
				<radialGradient id="cg" cx="1009.5" cy="-371.97" r="1.8916" gradientTransform="matrix(-.0529 .7982 1.348 .1057 573.8 -723.25)" gradientUnits="userSpaceOnUse">
				<stop stop-color="#fff" offset="0"/>
				<stop stop-color="#B9914A" offset=".1647"/>
				<stop stop-color="#523E10" stop-opacity=".8471" offset=".8588"/>
				<stop stop-color="#775B19" stop-opacity=".8471" offset="1"/>
			</radialGradient>
			<path d="m18.937 44.658c-0.533 0-0.987-0.12-1.36-0.36 0.081-0.347 0.254-0.627 0.521-0.84 0.266-0.24 0.56-0.347 0.879-0.32 0.347 0.026 0.654 0.16 0.92 0.4 0.267 0.239 0.413 0.547 0.44 0.92-0.4 0.159-0.867 0.227-1.4 0.2z" fill="url(#cg)"/>
				<radialGradient id="cc" cx="1010.6" cy="-385.41" r="1.4784" gradientTransform="matrix(-.0541 .7982 1.3528 .1082 604.45 -719.55)" gradientUnits="userSpaceOnUse">
				<stop stop-color="#fff" offset="0"/>
				<stop stop-color="#B9914A" offset=".1647"/>
				<stop stop-color="#523E10" stop-opacity=".8471" offset=".8588"/>
				<stop stop-color="#775B19" stop-opacity=".8471" offset="1"/>
			</radialGradient>
			<path d="m27.616 45.577c0.214-0.187 0.453-0.266 0.72-0.239 0.64 0 1 0.347 1.081 1.04-0.214 0.106-0.587 0.16-1.121 0.16-0.426-0.027-0.786-0.134-1.079-0.32 0.053-0.267 0.186-0.481 0.399-0.641z" fill="url(#cc)"/>
				<radialGradient id="cd" cx="1011.5" cy="-381.22" r="2.2051" gradientTransform="matrix(-.0544 .7981 1.3469 .1088 593.15 -719.79)" gradientUnits="userSpaceOnUse">
				<stop stop-color="#fff" offset="0"/>
				<stop stop-color="#B9914A" offset=".1647"/>
				<stop stop-color="#523E10" stop-opacity=".8471" offset=".8588"/>
				<stop stop-color="#775B19" stop-opacity=".8471" offset="1"/>
			</radialGradient>
			<path d="m24.536 47.777c-0.719-0.026-1.253-0.173-1.6-0.439 0.107-0.4 0.307-0.733 0.6-1 0.32-0.267 0.681-0.387 1.081-0.36s0.746 0.187 1.04 0.48c0.319 0.293 0.493 0.653 0.519 1.08-0.32 0.187-0.866 0.266-1.64 0.239z" fill="url(#cd)"/>
				<radialGradient id="ce" cx="1009.1" cy="-398.81" r="1.555" gradientTransform="matrix(-.0605 .7977 1.7164 .1303 778.35 -709.75)" gradientUnits="userSpaceOnUse">
				<stop stop-color="#fff" offset="0"/>
				<stop stop-color="#B9914A" offset=".1647"/>
				<stop stop-color="#523E10" stop-opacity=".8471" offset=".8588"/>
				<stop stop-color="#775B19" stop-opacity=".8471" offset="1"/>
			</radialGradient>
			<path d="m32.656 44.417c-0.64 0-1.12-0.105-1.439-0.319 0.079-0.294 0.253-0.521 0.52-0.681 0.294-0.186 0.613-0.266 0.96-0.239 0.347 0 0.666 0.106 0.96 0.32 0.267 0.213 0.413 0.466 0.44 0.76-0.348 0.133-0.827 0.186-1.441 0.159z" fill="url(#ce)"/>
		<radialGradient id="cf" cx="999.94" cy="-345.61" r="24.65" gradientTransform="matrix(-.0251 .7996 1.5651 .0492 592.97 -760.18)" gradientUnits="userSpaceOnUse">
		<stop stop-color="#fff" stop-opacity=".2588" offset="0"/>
		<stop stop-color="#EBEBEB" stop-opacity=".3686" offset=".1647"/>
		<stop stop-color="#E0E0E0" stop-opacity=".4588" offset=".8588"/>
		<stop stop-color="#EDEDED" stop-opacity=".2275" offset="1"/>
	</radialGradient>
	<path d="m36.616 45.817c0.746 0.587 0.373 1.174-1.12 1.76-1.76 0.721-4.479 1.027-8.16 0.921-3.573-0.081-6.426-0.547-8.56-1.4-1.733-0.693-2.4-1.227-2-1.6 0.027-0.026 0.52-0.813 1.48-2.36 0.853-1.413 1.573-2.294 2.16-2.64 0.506-0.294 1.187-0.294 2.04 0 0.827 0.267 1.4 0.253 1.72-0.04 0.373-0.347 0.373-0.841 0-1.48l-0.76-1.279c0-1.44 0.307-2.694 0.92-3.761 0.533-0.746 0.867-1.253 1-1.52 0.24-0.373 0.293-0.88 0.16-1.52-0.107-0.453-0.48-1.334-1.121-2.64-0.559-1.147-0.84-1.987-0.84-2.521 0-0.613 0.507-1.24 1.521-1.879 1.173-0.641 1.88-1.041 2.119-1.2 0.48-0.293 0.36-0.733-0.359-1.32h1.319c0.934 0.053 1.561 0.293 1.881 0.721 0.293 0.426 0.014 0.933-0.841 1.52-0.427 0.32-0.88 0.586-1.359 0.8l-1 0.76c-0.48 0.666-0.333 1.36 0.44 2.08 0.105 0.107 0.52 0.333 1.239 0.68 0.693 0.427 1.014 0.88 0.96 1.36-0.053 0.4-0.239 0.893-0.56 1.48-0.293 0.507-0.44 0.906-0.44 1.199 0 0.188-0.253 0.574-0.76 1.16-0.453 0.561-0.6 1.134-0.439 1.72 0.105 0.4 0.359 1.041 0.76 1.921 0.24 0.533 0.279 0.894 0.119 1.079-0.187 0.16 0.174 0.36 1.081 0.601 1.173 0.293 1.893 0.52 2.159 0.68 1.547 0.96 2.76 2.267 3.641 3.92 0.933 1.758 1.467 2.692 1.6 2.798z" fill="url(#cf)"/>
			<radialGradient id="ch" cx="1070.8" cy="-168.24" r="17.867" gradientTransform="matrix(.1093 .7925 .7259 -.1001 31.163 -821.07)" gradientUnits="userSpaceOnUse">
			<stop stop-color="#fff" stop-opacity=".4784" offset="0"/>
			<stop stop-color="#fff" stop-opacity=".0824" offset=".7098"/>
			<stop stop-color="#fff" stop-opacity=".2" offset=".8667"/>
			<stop stop-color="#fff" stop-opacity=".0275" offset="1"/>
		</radialGradient>
		<path d="m36.856 51.938c-1.146 2.934-3.146 5.04-6 6.32-2.854 1.279-5.72 1.359-8.6 0.24-2.88-1.121-4.933-3.121-6.16-6-1.2-2.881-1.227-5.787-0.08-8.721 1.173-2.934 3.173-5.039 6-6.319 2.853-1.28 5.72-1.36 8.6-0.24 2.854 1.12 4.894 3.12 6.12 6s1.267 5.786 0.12 8.72z" fill="url(#ch)"/>
			<radialGradient id="ci" cx="-453.71" cy="993.7" r="24.783" gradientTransform="matrix(.6065 -.5217 -.5217 -.6065 812.57 419.42)" gradientUnits="userSpaceOnUse">
			<stop stop-color="#fff" stop-opacity=".949" offset="0"/>
			<stop stop-color="#8A9B9E" offset="1"/>
		</radialGradient>
		<path d="m36.696 51.737c1.146-2.879 1.12-5.72-0.08-8.52-1.199-2.827-3.213-4.8-6.04-5.92-2.827-1.094-5.64-1.013-8.44 0.24s-4.76 3.306-5.879 6.16c-1.121 2.879-1.081 5.733 0.119 8.56 1.2 2.826 3.213 4.786 6.041 5.88 2.827 1.094 5.626 1.026 8.4-0.2 2.799-1.252 4.759-3.32 5.879-6.2zm0.04-8.519c1.227 2.88 1.267 5.786 0.12 8.72s-3.146 5.04-6 6.32c-2.854 1.279-5.72 1.359-8.6 0.24-2.88-1.121-4.933-3.121-6.16-6-1.2-2.881-1.227-5.787-0.08-8.721 1.173-2.934 3.173-5.039 6-6.319 2.853-1.28 5.72-1.36 8.6-0.24 2.854 1.12 4.894 3.12 6.12 6z" fill="url(#ci)"/>
			<radialGradient id="cj" cx="1070.2" cy="-98.58" r="12.787" gradientTransform="matrix(.1611 .7836 .8876 -.147 -58.939 -813.24)" gradientUnits="userSpaceOnUse">
			<stop stop-color="#fff" stop-opacity=".5882" offset="0"/>
			<stop stop-color="#fff" stop-opacity="0" offset="1"/>
		</radialGradient>
		<path d="m29.257 40.978c1.76 0.613 2.853 1.934 3.279 3.96 0.24 1.014 0.294 1.974 0.16 2.88l-0.12 1.32c-0.187 0.986-0.613 1.813-1.28 2.479-2.106 2.134-6.106 2.214-12 0.241-1.733-0.587-2.68-1.987-2.84-4.2-0.16-1.921 0.24-3.721 1.2-5.4 0.453-0.8 1.106-1.507 1.96-2.12 0.667-0.506 1.146-0.773 1.44-0.8 0.106 0 0.2 0.146 0.28 0.439 0.293 0.4 1 0.787 2.12 1.16 1.173 0.4 2.493 0.534 3.96 0.4 0.72-0.079 1.333-0.199 1.841-0.359z" fill="url(#cj)"/>
			<radialGradient id="ck" cx="1076" cy="-109.09" r="8.3963" gradientTransform="matrix(.1611 .7836 .8671 -.1783 -44.219 -822.87)" gradientUnits="userSpaceOnUse">
			<stop stop-color="#fff" stop-opacity=".6196" offset="0"/>
			<stop stop-color="#fff" stop-opacity=".0275" offset="1"/>
		</radialGradient>
		<path d="m36.856 47.617c-0.026 0.8-0.12 1.468-0.28 2l-1.8 0.36c0.16-0.187 0.267-0.52 0.32-1 0.16-0.934 0.066-2.146-0.28-3.64-0.347-1.494-1.027-2.813-2.04-3.96l-1.44-1.28c0.214-0.187 0.214-0.573 0-1.16l-0.36-0.84 2 1.28c1.468 1.146 2.494 2.413 3.081 3.8 0.587 1.361 0.852 2.841 0.799 4.44z" fill="url(#ck)"/>
			<linearGradient id="cl" x1="663.16" x2="673.63" y1="844.92" y2="844.92" gradientTransform="matrix(.7447 .2922 -.2922 .7447 -224.3 -785.85)" gradientUnits="userSpaceOnUse">
			<stop stop-color="#fff" stop-opacity=".949" offset="0"/>
			<stop stop-color="#ABD9DB" offset="1"/>
		</linearGradient>
		<path d="m23.536 37.498c0.88-0.32 1.934-0.467 3.16-0.439 1.227 0.026 2.267 0.199 3.12 0.52s1.267 0.707 1.24 1.16c-0.026 0.426-0.427 0.786-1.2 1.079-0.414 0.139-0.867 0.244-1.36 0.32 0.453-0.08 0.866-0.187 1.24-0.32 0.747-0.293 1.134-0.64 1.16-1.04 0.026-0.426-0.374-0.786-1.2-1.079-0.826-0.32-1.826-0.494-3-0.521-1.173-0.026-2.187 0.107-3.04 0.4-0.854 0.293-1.294 0.653-1.32 1.08-0.027 0.4 0.32 0.746 1.04 1.04 0.36 0.16 0.767 0.286 1.22 0.379-0.482-0.089-0.916-0.215-1.3-0.379-0.773-0.32-1.147-0.681-1.12-1.081 0.028-0.453 0.481-0.826 1.36-1.119z" fill="url(#cl)"/>
			<linearGradient id="cm" x1="528.15" x2="537.47" y1="936.61" y2="936.61" gradientTransform="matrix(.7804 .1758 -.1758 .7804 -224.3 -785.85)" gradientUnits="userSpaceOnUse">
			<stop stop-opacity=".2471" offset="0"/>
			<stop stop-opacity=".0275" offset="1"/>
		</linearGradient>
		<path d="m30.896 38.777c-0.026 0.427-0.467 0.787-1.32 1.081-0.827 0.293-1.84 0.426-3.04 0.399-1.173-0.026-2.173-0.187-3-0.48-0.827-0.319-1.227-0.692-1.2-1.119 0.026-0.427 0.467-0.787 1.32-1.08s1.866-0.427 3.04-0.4c1.174 0.026 2.174 0.2 3 0.521 0.826 0.292 1.227 0.653 1.2 1.078z" fill="url(#cm)"/>
			<linearGradient id="co" x1="-1057.4" x2="-1050.5" y1="45.502" y2="45.502" gradientTransform="matrix(-.205 -.7733 .7733 -.205 -224.3 -785.85)" gradientUnits="userSpaceOnUse">
			<stop stop-color="#fff" stop-opacity=".2196" offset="0"/>
			<stop stop-color="#fff" stop-opacity=".0275" offset="1"/>
		</linearGradient>
		<path d="m24.057 18.098c-0.827 0.293-1.253 0.667-1.281 1.12-0.026 0.454 0.374 0.841 1.2 1.16 0.827 0.347 1.813 0.534 2.96 0.56 1.173 0.027 2.187-0.107 3.039-0.4 0.828-0.293 1.241-0.667 1.241-1.12 0.026-0.453-0.374-0.854-1.2-1.2-0.8-0.319-1.787-0.493-2.96-0.52-1.146-0.026-2.146 0.107-2.999 0.4zm-0.881 3.32c-1.04-0.48-1.546-1.053-1.52-1.72s0.573-1.227 1.64-1.681c1.04-0.453 2.293-0.666 3.76-0.64 1.466 0.053 2.72 0.32 3.76 0.8 1.014 0.48 1.507 1.053 1.479 1.721-0.026 0.666-0.56 1.227-1.6 1.68s-2.307 0.667-3.8 0.64c-1.465-0.027-2.706-0.293-3.719-0.8z" fill="url(#co)"/>
			<linearGradient id="cp" x1="335.7" x2="346.73" y1="1011.8" y2="1011.8" gradientTransform="matrix(.7997 .0215 -.0215 .7997 -224.3 -785.85)" gradientUnits="userSpaceOnUse">
			<stop stop-color="#fff" stop-opacity=".2196" offset="0"/>
			<stop stop-color="#fff" stop-opacity=".0275" offset="1"/>
		</linearGradient>
		<path d="m29.696 21.858c0.8-0.267 1.307-0.613 1.521-1.041l-0.241 17.64 0.081 0.319c-0.026 0.48-0.468 0.881-1.32 1.2-0.854 0.347-1.88 0.507-3.08 0.48-1.2-0.026-2.213-0.214-3.04-0.561-0.827-0.373-1.228-0.8-1.2-1.28 0-0.159 0.027-0.266 0.08-0.319l0.2-17.64c0.16 0.427 0.64 0.787 1.44 1.08s1.72 0.453 2.76 0.479c1.066 0.03 1.999-0.09 2.799-0.357z" fill="url(#cp)"/>
			<linearGradient id="cq" x1="336.05" x2="345.58" y1="1011.8" y2="1011.8" gradientTransform="matrix(.7997 .0211 -.0211 .7997 -224.3 -785.85)" gradientUnits="userSpaceOnUse">
			<stop stop-color="#fff" stop-opacity=".2196" offset="0"/>
			<stop stop-color="#fff" stop-opacity=".0275" offset="1"/>
		</linearGradient>
		<path d="m26.896 22.138c1.573 0 2.8-0.267 3.68-0.8l-0.159 16.4 0.039 0.32c-0.026 0.479-0.399 0.879-1.12 1.199-0.747 0.32-1.64 0.467-2.68 0.44-1.013-0.026-1.88-0.214-2.6-0.561s-1.067-0.76-1.04-1.239l0.08-0.281 0.16-16.399c0.827 0.588 2.04 0.894 3.64 0.921z" fill="url(#cq)"/>
				<linearGradient id="cr" x1="336.39" x2="347.22" y1="1023.6" y2="1023.6" gradientTransform="matrix(.7997 .0219 -.0219 .7997 -224.3 -785.85)" gradientUnits="userSpaceOnUse">
				<stop stop-color="#fff" stop-opacity=".949" offset="0"/>
				<stop stop-color="#ABD9DB" offset="1"/>
			</linearGradient>
			<path d="m27.976 40.298c-0.266 0.053-0.706 0.08-1.319 0.08-0.72 0-1.453-0.094-2.2-0.28l-0.12-0.16c0.693 0.214 1.547 0.32 2.56 0.32l1.079 0.04z" fill="url(#cr)"/>
				<linearGradient id="cs" x1="334.94" x2="347.47" y1="1011.5" y2="1011.5" gradientTransform="matrix(.7997 .0209 -.0209 .7997 -224.3 -785.85)" gradientUnits="userSpaceOnUse">
				<stop stop-color="#fff" stop-opacity=".949" offset="0"/>
				<stop stop-color="#809C89" offset="1"/>
			</linearGradient>
			<path d="m22.696 20.578l0.28 0.4c-0.053 1.787-0.093 7.133-0.12 16.04v0.2c0 0.747 0.187 1.373 0.56 1.88l-0.16 0.08c-0.24-0.134-0.4-0.2-0.48-0.2-0.106 0.026-0.106 0.107 0 0.24l0.281 0.2v0.08c-0.453-0.294-0.681-0.613-0.681-0.96l0.081-0.32 0.239-17.64z" fill="url(#cs)"/>
				<linearGradient id="ct" x1="300.75" x2="311.2" y1="1022.2" y2="1022.2" gradientTransform="matrix(.8 -.0057 .0057 .8 -224.3 -785.85)" gradientUnits="userSpaceOnUse">
				<stop stop-color="#fff" stop-opacity=".949" offset="0"/>
				<stop stop-color="#9AAFB8" offset="1"/>
			</linearGradient>
			<path d="m30.257 21.538c0.479-0.24 0.8-0.507 0.96-0.8l-0.241 17.64 0.081 0.28c-0.026 0.293-0.2 0.56-0.521 0.8-0.053-0.08-0.187-0.173-0.4-0.28l0.4-0.68 0.16-0.561 0.16-16.12c0.026-0.24 0-0.359-0.08-0.359-0.054 0-0.227 0.066-0.52 0.2v-0.12z" fill="url(#ct)"/>
				<linearGradient id="cu" x1="1006" x2="1016.4" y1="-337.63" y2="-337.63" gradientTransform="matrix(-.0212 .7997 -.7997 -.0212 -224.3 -785.85)" gradientUnits="userSpaceOnUse">
				<stop stop-color="#fff" stop-opacity=".4196" offset="0"/>
				<stop stop-color="#fff" stop-opacity=".0275" offset="1"/>
			</linearGradient>
			<path d="m23.817 21.538c0.506 0.213 0.973 0.347 1.4 0.4l-0.241 17.6c-0.106 0.053-0.159 0.106-0.159 0.16 0.053 0.079 0.106 0.119 0.159 0.119v0.041l-0.56-0.241-0.16 0.041c-0.053 0.026-0.026 0.119 0.08 0.279-0.561-0.16-0.987-0.333-1.28-0.52 0-0.027 0.066-0.106 0.2-0.24l0.68 0.36c-0.133-0.08-0.306-0.227-0.52-0.44l0.2-0.08 0.201-17.479z" fill="url(#cu)"/>
				<linearGradient id="cv" x1="335.41" x2="346.16" y1="1022.9" y2="1022.9" gradientTransform="matrix(.7997 .0211 -.0211 .7997 -224.3 -785.85)" gradientUnits="userSpaceOnUse">
				<stop stop-color="#fff" stop-opacity=".949" offset="0"/>
				<stop stop-color="#ABD9DB" offset="1"/>
			</linearGradient>
			<path d="m23.936 39.538l-0.68-0.36 0.16-0.08c0.214 0.214 0.387 0.36 0.52 0.44z" fill="url(#cv)"/>
				<linearGradient id="cw" x1="1016" x2="1020.5" y1="-337.46" y2="-337.46" gradientTransform="matrix(-.0215 .7997 -.7997 -.0215 -224.3 -785.85)" gradientUnits="userSpaceOnUse">
				<stop stop-color="#fff" stop-opacity=".4196" offset="0"/>
				<stop stop-color="#fff" stop-opacity=".0275" offset="1"/>
			</linearGradient>
			<path d="m23.936 39.538l-0.68-0.36 0.16-0.08c0.214 0.214 0.387 0.36 0.52 0.44z" fill="url(#cw)"/>
				<linearGradient id="cx" x1="317.21" x2="317.49" y1="1025.1" y2="1014.7" gradientTransform="matrix(.8 0 0 .8 -224.3 -785.85)" gradientUnits="userSpaceOnUse">
				<stop stop-color="#fff" stop-opacity=".1373" offset="0"/>
				<stop stop-color="#fff" stop-opacity=".0275" offset="1"/>
			</linearGradient>
			<path d="m30.176 21.698l0.081-0.04-0.24 17.479 0.119 0.04c-0.187 0.213-0.373 0.373-0.56 0.48 0.48-0.107 0.707-0.107 0.681 0-0.294 0.159-0.653 0.306-1.081 0.439 0.16-0.213 0.214-0.333 0.16-0.359l-0.16-0.04-0.56 0.239 0.24-18c0.133 0 0.319-0.04 0.561-0.12 0.346 2e-3 0.6-0.038 0.759-0.118z" fill="url(#cx)"/>
				<linearGradient id="cz" x1="334.61" x2="346.18" y1="1000.8" y2="1000.8" gradientTransform="matrix(.7997 .0209 -.0209 .7997 -224.3 -785.85)" gradientUnits="userSpaceOnUse">
				<stop stop-color="#fff" offset="0"/>
				<stop stop-color="#ABD9DB" offset="1"/>
			</linearGradient>
			<path d="m30.176 21.698c-0.159 0.08-0.413 0.12-0.759 0.12 0.426-0.133 0.706-0.227 0.84-0.28v0.12l-0.081 0.04z" fill="url(#cz)"/>
				<linearGradient id="da" x1="317.49" x2="317.62" y1="1016.2" y2="1011.7" gradientTransform="matrix(.8 0 0 .8 -224.3 -785.85)" gradientUnits="userSpaceOnUse">
				<stop stop-color="#fff" stop-opacity=".1373" offset="0"/>
				<stop stop-color="#fff" stop-opacity=".0275" offset="1"/>
			</linearGradient>
			<path d="m30.176 21.698c-0.159 0.08-0.413 0.12-0.759 0.12 0.426-0.133 0.706-0.227 0.84-0.28v0.12l-0.081 0.04z" fill="url(#da)"/>
				<linearGradient id="db" x1="334.99" x2="346.54" y1="1022.9" y2="1022.9" gradientTransform="matrix(.7997 .0209 -.0209 .7997 -224.3 -785.85)" gradientUnits="userSpaceOnUse">
				<stop stop-color="#fff" offset="0"/>
				<stop stop-color="#ABD9DB" offset="1"/>
			</linearGradient>
			<path d="m30.136 39.178c0.214 0.107 0.348 0.2 0.4 0.28l-0.279 0.2c0.026-0.107-0.2-0.107-0.681 0 0.187-0.107 0.373-0.267 0.56-0.48z" fill="url(#db)"/>
				<linearGradient id="dc" x1="318.02" x2="318.14" y1="1029.3" y2="1024.8" gradientTransform="matrix(.8 0 0 .8 -224.3 -785.85)" gradientUnits="userSpaceOnUse">
				<stop stop-color="#fff" stop-opacity=".1373" offset="0"/>
				<stop stop-color="#fff" stop-opacity=".0275" offset="1"/>
			</linearGradient>
			<path d="m30.136 39.178c0.214 0.107 0.348 0.2 0.4 0.28l-0.279 0.2c0.026-0.107-0.2-0.107-0.681 0 0.187-0.107 0.373-0.267 0.56-0.48z" fill="url(#dc)"/>
			<path d="m24.817 39.698c0-0.054 0.053-0.107 0.159-0.16 0.187-0.054 0.387-0.014 0.6 0.12 0.427 0.213 0.56 0.319 0.4 0.319-0.506-0.026-0.84-0.08-1-0.16-0.053 0-0.106-0.04-0.159-0.119z" fill="#fff"/>
			<path d="m26.417 40.098c-0.107-0.054-0.121-0.12-0.041-0.2 0.054-0.054 0.134-0.08 0.24-0.08 0.133 0.026 0.16 0.094 0.08 0.2-0.052 0.106-0.146 0.133-0.279 0.08z" fill="#fff"/>
			<linearGradient id="dd" x1="335.17" x2="345.75" y1="997.88" y2="997.88" gradientTransform="matrix(.7997 .021 -.021 .7997 -224.3 -785.85)" gradientUnits="userSpaceOnUse">
			<stop stop-opacity=".0863" offset="0"/>
			<stop stop-color="#BCD9DB" stop-opacity=".4196" offset="1"/>
		</linearGradient>
		<path d="m31.217 19.418c0 0.454-0.413 0.827-1.241 1.12-0.853 0.293-1.866 0.427-3.039 0.4-1.147-0.026-2.133-0.213-2.96-0.56-0.827-0.319-1.227-0.706-1.2-1.16 0.027-0.453 0.454-0.827 1.281-1.12 0.853-0.293 1.853-0.426 3-0.4 1.173 0.026 2.16 0.2 2.96 0.52 0.825 0.346 1.225 0.747 1.199 1.2z" fill="url(#dd)"/>
			<linearGradient id="de" x1="-1057.4" x2="-1050.5" y1="45.502" y2="45.502" gradientTransform="matrix(-.205 -.7733 .7733 -.205 -224.3 -785.85)" gradientUnits="userSpaceOnUse">
			<stop stop-color="#fff" stop-opacity=".949" offset="0"/>
			<stop stop-color="#9AAFB8" offset="1"/>
		</linearGradient>
		<path d="m23.457 18.059c-0.987 0.4-1.48 0.893-1.48 1.479-0.026 0.587 0.44 1.093 1.4 1.521 0.96 0.426 2.134 0.653 3.521 0.68 1.387 0.053 2.573-0.121 3.56-0.521s1.493-0.893 1.52-1.479c0.027-0.587-0.453-1.093-1.439-1.521-0.96-0.427-2.133-0.653-3.52-0.68s-2.576 0.147-3.562 0.521zm-0.281 3.359c-1.04-0.48-1.546-1.053-1.52-1.72s0.573-1.227 1.64-1.681c1.04-0.453 2.293-0.666 3.76-0.64 1.466 0.053 2.72 0.32 3.76 0.8 1.014 0.48 1.507 1.053 1.479 1.721-0.026 0.666-0.56 1.227-1.6 1.68s-2.307 0.667-3.8 0.64c-1.465-0.027-2.706-0.293-3.719-0.8z" fill="url(#de)"/>
			<linearGradient id="df" x1="655.14" x2="665.13" y1="822.12" y2="822.12" gradientTransform="matrix(.7447 .2923 -.2923 .7447 -224.3 -785.85)" gradientUnits="userSpaceOnUse">
			<stop stop-color="#fff" stop-opacity=".949" offset="0"/>
			<stop stop-color="#ABD9DB" offset="1"/>
		</linearGradient>
		<path d="m23.976 20.378c-0.827-0.319-1.227-0.706-1.2-1.16 0.027-0.453 0.454-0.827 1.281-1.12 0.138-0.047 0.278-0.087 0.419-0.12-0.086 0.022-0.173 0.048-0.259 0.081-0.8 0.319-1.213 0.693-1.241 1.119-0.026 0.427 0.36 0.8 1.16 1.121 0.773 0.319 1.72 0.493 2.839 0.52 1.121 0.027 2.067-0.106 2.841-0.4 0.8-0.293 1.214-0.653 1.24-1.08 0-0.426-0.36-0.8-1.081-1.12-0.187-0.073-0.379-0.14-0.579-0.2 0.244 0.069 0.478 0.148 0.7 0.241 0.773 0.346 1.146 0.733 1.12 1.16 0 0.454-0.413 0.827-1.241 1.12-0.853 0.293-1.866 0.427-3.039 0.4-1.146-0.028-2.133-0.215-2.96-0.562z" fill="url(#df)"/>
			<linearGradient id="dg" x1="335.17" x2="345.75" y1="997.91" y2="997.91" gradientTransform="matrix(.7997 .021 -.021 .7997 -224.3 -785.85)" gradientUnits="userSpaceOnUse">
			<stop stop-color="#fff" stop-opacity=".949" offset="0"/>
			<stop stop-color="#9AAFB8" offset="1"/>
		</linearGradient>
		<path d="m24.057 18.098c0.206-0.071 0.419-0.131 0.64-0.18-0.163 0.041-0.323 0.088-0.479 0.141-0.773 0.266-1.16 0.613-1.16 1.04-0.027 0.427 0.347 0.8 1.12 1.12 0.747 0.32 1.667 0.494 2.76 0.521 1.094 0.026 2.039-0.107 2.84-0.4 0.773-0.266 1.173-0.613 1.199-1.04 0-0.427-0.372-0.787-1.119-1.081-0.483-0.2-1.03-0.346-1.64-0.44 0.68 0.086 1.279 0.232 1.8 0.44 0.826 0.347 1.227 0.747 1.2 1.2 0 0.454-0.413 0.827-1.241 1.12-0.853 0.293-1.866 0.427-3.039 0.4-1.147-0.026-2.133-0.213-2.96-0.56-0.827-0.319-1.227-0.706-1.2-1.16 0.025-0.454 0.452-0.828 1.279-1.121z" fill="url(#dg)"/>
		<path d="m30.136 12.218c0.641 0.187 1.134 0.374 1.48 0.56l-0.52 6.64c-0.107 0.213-0.348 0.427-0.721 0.641-0.8 0.426-1.933 0.626-3.4 0.6-1.519-0.027-2.666-0.254-3.439-0.68l-0.719-0.6c-0.16-1.919-0.294-3.16-0.4-3.719l-0.36-2.721 0.8-0.36c0.773-0.293 1.827-0.506 3.16-0.64 1.493-0.161 2.866-0.067 4.119 0.279z" fill="#A78A56"/>
		<path d="m27.176 14.018h1.12c0.08-0.027 0.147-0.066 0.2-0.12l0.08-0.24c0-0.081 0.054-0.121 0.16-0.121 0 0.213 0.08 0.387 0.239 0.521 0.027 0.026 0.2 0.08 0.521 0.159 0.187 0.054 0.28 0.16 0.28 0.32-0.027 0.187-0.146 0.347-0.359 0.48-0.027 0-0.214 0.067-0.561 0.2-0.587 0.187-1.467 0.281-2.64 0.281-1.173 0.053-2.094-0.04-2.76-0.281-0.427-0.133-0.813-0.319-1.16-0.559l-0.24-1.721c0.187 0.053 0.333 0.121 0.44 0.2 0.187 0.16 0.479 0.267 0.879 0.32 0.507 0.187 0.813 0.293 0.92 0.319l0.88 0.2c0.24 0.053 0.573 0.081 1 0.081 0.215 2e-3 0.548-0.012 1.001-0.039z" fill="#CBA769"/>
			<linearGradient id="be" x1="-303.48" x2="-300.98" y1="-1001.1" y2="-1001.1" gradientTransform="matrix(-.8 .0077 -.0077 -.8 -224.3 -785.85)" gradientUnits="userSpaceOnUse">
			<stop stop-color="#C1A064" offset="0"/>
			<stop stop-color="#706341" offset="1"/>
		</linearGradient>
		<path d="m25.776 12.378c0.134 0 0.2 0.053 0.2 0.16-0.026 0.08-0.08 0.147-0.159 0.2-0.081 0.08-0.268 0.12-0.561 0.12h-1.24c0-0.32 0.44-0.48 1.32-0.48h0.44z" fill="url(#be)"/>
			<linearGradient id="bf" x1="-300.5" x2="-298.78" y1="-1003.1" y2="-1003.1" gradientTransform="matrix(-.7999 .0113 -.0113 -.7999 -224.3 -785.85)" gradientUnits="userSpaceOnUse">
			<stop stop-color="#C1A064" offset="0"/>
			<stop stop-color="#706341" offset="1"/>
		</linearGradient>
		<path d="m25.936 13.298c-0.053-0.16 0.04-0.253 0.281-0.28 0.133-0.027 0.306-0.027 0.52 0l0.48 0.08c-0.054 0.133-0.134 0.213-0.241 0.24-0.133 0.026-0.253 0.04-0.359 0.04l-0.681-0.08z" fill="url(#bf)"/>
			<linearGradient id="bh" x1="-315.39" x2="-314.81" y1="-997.78" y2="-997.78" gradientTransform="matrix(-.8 0 0 -.8 -224.3 -785.85)" gradientUnits="userSpaceOnUse">
			<stop stop-color="#C1A064" offset="0"/>
			<stop stop-color="#706341" offset="1"/>
		</linearGradient>
		<polygon points="27.536 12.298 27.736 12.298 27.976 12.418 27.536 12.418" fill="url(#bh)"/>
			<linearGradient id="bi" x1="-311.61" x2="-307.86" y1="-1000.6" y2="-1000.6" gradientTransform="matrix(-.8 .0077 -.0077 -.8 -224.3 -785.85)" gradientUnits="userSpaceOnUse">
			<stop stop-color="#C1A064" offset="0"/>
			<stop stop-color="#706341" offset="1"/>
		</linearGradient>
		<path d="m29.536 12.338c-0.16-0.134-0.187-0.227-0.08-0.28l1.36 0.359h-0.12c-0.613 0.028-1 1e-3 -1.16-0.079z" fill="url(#bi)"/>
			<linearGradient id="bj" x1="-319.51" x2="-318.69" y1="-998.25" y2="-998.25" gradientTransform="matrix(-.8 0 0 -.8 -224.3 -785.85)" gradientUnits="userSpaceOnUse">
			<stop stop-color="#C1A064" offset="0"/>
			<stop stop-color="#706341" offset="1"/>
		</linearGradient>
		<path d="m30.616 12.778v-0.119h0.641c-0.081 0.159-0.294 0.199-0.641 0.119z" fill="url(#bj)"/>
		<path d="m29.696 14.258c-0.134-0.107-0.253-0.213-0.36-0.32-0.213-0.24-0.267-0.4-0.16-0.479 0.107-0.081 0.374-0.067 0.8 0.04 0.241 0.053 0.454 0.106 0.641 0.16 0.48-0.16 0.813-0.467 1-0.92v0.04l-0.52 6.64c-0.107 0.213-0.348 0.427-0.721 0.641-0.8 0.426-1.933 0.626-3.4 0.6-1.519-0.027-2.666-0.254-3.439-0.68l-0.719-0.6c-0.16-1.919-0.294-3.16-0.4-3.719l-0.36-2.721 0.919 0.68c0.88 0.48 2.013 0.707 3.4 0.681l3.319-0.043z" fill="#A58D54"/>
		<path d="m27.097 19.018l-0.2-0.2c-0.187 0.32-0.214 0.534-0.08 0.641 0.214 0.159 0.387 0.08 0.52-0.241-0.027-0.08-0.108-0.146-0.24-0.2zm1.12-1.6l-0.12-0.12c-0.054 0.08-0.08 0.266-0.08 0.56 0.106 0.026 0.213 0.026 0.319 0 0-0.267-0.04-0.413-0.119-0.44zm-0.16-2.32c-0.187 0-0.253 0.16-0.2 0.48s0.174 0.507 0.36 0.56c0.187 0.026 0.279-0.08 0.279-0.32 0.026-0.346-0.053-0.587-0.239-0.72h-0.2zm0.239-0.76h-1.279c0.933 0.213 1.506 0.4 1.72 0.56 0.134 0.08 0.28 0.24 0.439 0.479 0.107 0.081 0.228 0.187 0.36 0.32 0.107 0.106 0.16 0.253 0.16 0.44 0 0.134-0.12 0.333-0.36 0.6-0.213 0.24-0.319 0.44-0.319 0.6 0.026 0.08 0.08 0.187 0.159 0.32l-0.239 0.48c-0.133 0.187-0.2 0.307-0.2 0.36-0.026 0.08-0.014 0.213 0.04 0.4 0.054 0.24-0.027 0.387-0.24 0.439-0.133 0.053-0.267 0.053-0.4 0-0.187-0.107-0.306-0.16-0.359-0.16l-0.24 0.24-0.16 0.08c-0.053 0.08-0.106 0.12-0.159 0.12-0.134 0.081-0.347 0.121-0.641 0.121-0.08 0.053-0.173 0.12-0.28 0.2-0.106 0.053-0.213 0.08-0.32 0.08-0.053 0-0.493-0.08-1.319-0.24-0.107 0-0.174-0.013-0.2-0.04-0.026 0-0.067-0.053-0.12-0.16-0.027-0.133-0.08-0.24-0.16-0.32l-0.359-0.241c-0.268 0.16-0.534 0.134-0.8-0.08l-0.28-0.24-0.08-1.04 0.24 0.359c0.213 0.213 0.413 0.294 0.6 0.241 0.107-0.027 0.213-0.12 0.32-0.28 0.213 0.4 0.52 0.653 0.919 0.76 0.107 0.026 0.293 0.053 0.56 0.08 0.187 0.054 0.28 0.173 0.28 0.36 0.213 0 0.36-0.026 0.44-0.08 0.053-0.026 0.093-0.107 0.119-0.24 0.027-0.107 0.067-0.173 0.121-0.2 0.105 0.16 0.293 0.173 0.56 0.04 0.054-0.374 0.2-0.6 0.44-0.681 0.105-0.026 0.213-0.053 0.319-0.08 0.08-0.026 0.146-0.107 0.2-0.24 0.027-0.187 0.013-0.44-0.04-0.76-0.054-0.107-0.133-0.2-0.24-0.279-0.134-0.081-0.213-0.054-0.239 0.08-0.214-0.027-0.374-0.187-0.48-0.48-0.16-0.427-0.254-0.654-0.28-0.68-0.213-0.347-0.613-0.653-1.2-0.919-0.213-0.081-0.427-0.228-0.64-0.441l-0.121-0.08c0.453 0.107 1.067 0.16 1.84 0.16l3.2-0.04c0.054 0.187 0.134 0.293 0.24 0.32 0.106 0.107 0.227 0.16 0.359 0.16 0.268-0.027 0.4-0.32 0.4-0.88l-0.04-0.2h0.08l0.08-0.041c0 0.641-0.107 1.014-0.32 1.121-0.133 0.08-0.359 0.107-0.68 0.08-0.32-0.026-0.467-0.133-0.439-0.319-0.428-0.106-0.748-0.159-0.962-0.159z" fill="#8B7347"/>
		<path d="m29.136 13.538l0.04-0.08c0.16-0.107 0.613-0.041 1.36 0.2l0.04 0.2c0 0.56-0.133 0.853-0.4 0.88-0.133 0-0.253-0.053-0.359-0.16 0.187 0.107 0.359 0.053 0.52-0.16 0.081-0.106 0.12-0.267 0.12-0.48-0.026-0.187-0.133-0.307-0.32-0.36-0.507-0.187-0.841-0.2-1.001-0.04z" fill="#615031"/>
		<path d="m29.536 16.818c-0.16 0.027-0.253 0.16-0.279 0.4 0 0.213 0.066 0.347 0.199 0.4 0.24 0.081 0.387 0.013 0.44-0.2 0.053-0.187 0.04-0.387-0.04-0.6h-0.32zm-0.8-1.92c-0.214-0.16-0.787-0.347-1.72-0.56h1.279c0.214 0 0.534 0.053 0.961 0.16-0.027 0.187 0.119 0.293 0.439 0.319 0.32 0.027 0.547 0 0.68-0.08 0.213-0.107 0.32-0.48 0.32-1.121l0.12-0.04c0.08 0.32 0.12 0.507 0.12 0.56 0.026 0.08 0 0.32-0.08 0.72-0.053 0.24-0.08 0.573-0.08 1 0 0.267-0.106 0.506-0.32 0.72-0.106 0.187-0.12 0.494-0.039 0.92l0.119 0.72c-0.08 0.4-0.187 0.667-0.319 0.8-0.027 0.027-0.12 0.067-0.28 0.121-0.106 0.026-0.174 0.107-0.2 0.24-0.214 0.026-0.453 0.134-0.72 0.32-0.373 0.24-0.587 0.374-0.641 0.4-0.187 0.106-0.467 0.16-0.84 0.16-0.4-0.027-0.693-0.041-0.88-0.041-0.294 0.027-0.733 0.013-1.32-0.04-0.267 0-0.467-0.026-0.6-0.08l-0.72-0.32-0.641-0.12-0.559-0.28-0.081-0.68 0.28 0.24c0.267 0.213 0.533 0.24 0.8 0.08l0.359 0.241c0.08 0.08 0.133 0.187 0.16 0.32 0.053 0.107 0.094 0.16 0.12 0.16 0.026 0.026 0.093 0.04 0.2 0.04 0.826 0.16 1.266 0.24 1.319 0.24 0.107 0 0.213-0.026 0.32-0.08 0.107-0.08 0.2-0.147 0.28-0.2 0.16-0.053 0.373-0.093 0.641-0.121 0.053 0 0.106-0.04 0.159-0.12l0.16-0.08 0.24-0.24c0.054 0 0.173 0.053 0.359 0.16 0.134 0.053 0.268 0.053 0.4 0 0.213-0.053 0.294-0.2 0.24-0.439-0.054-0.187-0.066-0.32-0.04-0.4 0-0.053 0.067-0.173 0.2-0.36l0.239-0.48c-0.079-0.133-0.133-0.24-0.159-0.32 0-0.16 0.106-0.36 0.319-0.6 0.24-0.267 0.36-0.466 0.36-0.6 0-0.187-0.053-0.333-0.16-0.44-0.133-0.133-0.253-0.24-0.36-0.32-0.153-0.239-0.3-0.399-0.434-0.479z" fill="#735E39"/>
		<path d="m31.616 12.778l-0.32 2.881c-0.187 0-0.253 0.159-0.199 0.479 0 0.187 0.053 0.307 0.16 0.36l-0.16 2.919c-0.107 0.213-0.348 0.427-0.721 0.641-0.8 0.426-1.933 0.626-3.4 0.6-1.439-0.027-2.545-0.227-3.319-0.6-0.427-0.213-0.707-0.441-0.84-0.681l0.559 0.28 0.641 0.12 0.72 0.32c0.133 0.053 0.333 0.08 0.6 0.08 0.586 0.053 1.026 0.067 1.32 0.04 0.187 0 0.479 0.013 0.88 0.041 0.373 0 0.653-0.054 0.84-0.16 0.054-0.026 0.268-0.16 0.641-0.4 0.267-0.187 0.506-0.294 0.72-0.32 0.026-0.133 0.094-0.213 0.2-0.24 0.16-0.053 0.253-0.093 0.28-0.121 0.133-0.133 0.239-0.4 0.319-0.8l-0.119-0.72c-0.081-0.426-0.067-0.733 0.039-0.92 0.214-0.213 0.32-0.453 0.32-0.72 0-0.427 0.027-0.76 0.08-1 0.08-0.4 0.106-0.641 0.08-0.72 0-0.053-0.04-0.24-0.12-0.56 0.373-0.187 0.64-0.466 0.8-0.84v0.041z" fill="#4D4027"/>
			<linearGradient id="bk" x1="-1033.5" x2="-1031.4" y1="182.44" y2="182.44" gradientTransform="matrix(-.0998 -.7937 .7937 -.0998 -224.3 -785.85)" gradientUnits="userSpaceOnUse">
			<stop stop-color="#C1A064" offset="0"/>
			<stop stop-color="#706341" offset="1"/>
		</linearGradient>
		<path d="m23.617 16.258c-0.347 0.053-0.56-0.2-0.641-0.76-0.026-0.213 0-0.414 0.081-0.6 0.08-0.16 0.187-0.253 0.319-0.281 0.134-0.026 0.267 0.027 0.4 0.16 0.134 0.16 0.213 0.347 0.241 0.561 0.053 0.24 0.04 0.439-0.041 0.6-0.08 0.187-0.2 0.293-0.359 0.32z" fill="url(#bk)"/>
			<linearGradient id="bl" x1="-1035.2" x2="-1032.8" y1="185.41" y2="185.41" gradientTransform="matrix(-.0992 -.7938 .7938 -.0992 -224.3 -785.85)" gradientUnits="userSpaceOnUse">
			<stop stop-color="#C1A064" offset="0"/>
			<stop stop-color="#706341" offset="1"/>
		</linearGradient>
		<path d="m25.976 17.418c-0.506 0.24-0.919 0.067-1.24-0.52-0.293-0.587-0.187-1.027 0.32-1.32h0.24c0.293 0 0.493 0.026 0.6 0.081 0.187 0.08 0.307 0.253 0.36 0.52 0.08 0.693-0.013 1.106-0.28 1.239z" fill="url(#bl)"/>
			<linearGradient id="bm" x1="-1035" x2="-1033.8" y1="184.77" y2="184.77" gradientTransform="matrix(-.0983 -.7939 .7939 -.0983 -224.3 -785.85)" gradientUnits="userSpaceOnUse">
			<stop stop-color="#C1A064" offset="0"/>
			<stop stop-color="#706341" offset="1"/>
		</linearGradient>
		<path d="m23.736 17.378c-0.027-0.106-0.027-0.227 0-0.36 0.026-0.187 0.094-0.28 0.2-0.28l0.32 0.04c0.187 0.081 0.24 0.374 0.16 0.88-0.346 0.053-0.573-0.04-0.68-0.28z" fill="url(#bm)"/>
			<linearGradient id="bn" x1="-1032.2" x2="-1031.6" y1="195.9" y2="195.9" gradientTransform="matrix(-.0885 -.7951 .7951 -.0885 -224.3 -785.85)" gradientUnits="userSpaceOnUse">
			<stop stop-color="#C1A064" offset="0"/>
			<stop stop-color="#706341" offset="1"/>
		</linearGradient>
		<path d="m22.576 16.978c0.241-0.026 0.333 0.134 0.28 0.48l-0.2 0.08-0.08-0.56z" fill="url(#bn)"/>
		<path d="m28.217 16.138c-0.187-0.053-0.308-0.24-0.36-0.56-0.053-0.32 0.014-0.48 0.2-0.48h0.2c0.187 0.133 0.266 0.374 0.239 0.72 0 0.241-0.093 0.347-0.279 0.32z" fill="#705C39"/>
			<linearGradient id="bo" x1="-1034.6" x2="-1033.3" y1="185.31" y2="185.31" gradientTransform="matrix(-.102 -.7935 .7935 -.102 -224.3 -785.85)" gradientUnits="userSpaceOnUse">
			<stop stop-color="#C1A064" offset="0"/>
			<stop stop-color="#706341" offset="1"/>
		</linearGradient>
		<path d="m28.217 16.138c-0.187-0.053-0.308-0.24-0.36-0.56-0.053-0.32 0.014-0.48 0.2-0.48h0.2c0.187 0.133 0.266 0.374 0.239 0.72 0 0.241-0.093 0.347-0.279 0.32z" fill="url(#bo)"/>
		<path d="m28.217 17.418c0.079 0.027 0.119 0.173 0.119 0.44-0.106 0.026-0.213 0.026-0.319 0 0-0.294 0.026-0.48 0.08-0.56l0.12 0.12z" fill="#705C39"/>
			<linearGradient id="bp" x1="-1037.2" x2="-1036.5" y1="182.26" y2="182.26" gradientTransform="matrix(-.1041 -.7932 .7932 -.1041 -224.3 -785.85)" gradientUnits="userSpaceOnUse">
			<stop stop-color="#C1A064" offset="0"/>
			<stop stop-color="#706341" offset="1"/>
		</linearGradient>
		<path d="m28.217 17.418c0.079 0.027 0.119 0.173 0.119 0.44-0.106 0.026-0.213 0.026-0.319 0 0-0.294 0.026-0.48 0.08-0.56l0.12 0.12z" fill="url(#bp)"/>
		<path d="m27.097 19.018c0.133 0.054 0.213 0.121 0.239 0.2-0.133 0.32-0.306 0.4-0.52 0.241-0.134-0.107-0.106-0.32 0.08-0.641l0.201 0.2z" fill="#705C39"/>
			<linearGradient id="bq" x1="-1040.6" x2="-1039.7" y1="194.43" y2="194.43" gradientTransform="matrix(-.0935 -.7945 .7926 -.1101 -224.3 -785.85)" gradientUnits="userSpaceOnUse">
			<stop stop-color="#C1A064" offset="0"/>
			<stop stop-color="#706341" offset="1"/>
		</linearGradient>
		<path d="m27.097 19.018c0.133 0.054 0.213 0.121 0.239 0.2-0.133 0.32-0.306 0.4-0.52 0.241-0.134-0.107-0.106-0.32 0.08-0.641l0.201 0.2z" fill="url(#bq)"/>
		<path d="m29.536 16.818h0.32c0.08 0.213 0.093 0.413 0.04 0.6-0.054 0.213-0.2 0.28-0.44 0.2-0.133-0.053-0.199-0.187-0.199-0.4 0.026-0.24 0.119-0.373 0.279-0.4z" fill="#615031"/>
			<linearGradient id="bs" x1="-1034.9" x2="-1033.9" y1="196.41" y2="196.41" gradientTransform="matrix(-.0946 -.7944 .7944 -.0946 -224.3 -785.85)" gradientUnits="userSpaceOnUse">
			<stop stop-color="#C1A064" offset="0"/>
			<stop stop-color="#706341" offset="1"/>
		</linearGradient>
		<path d="m29.536 16.818h0.32c0.08 0.213 0.093 0.413 0.04 0.6-0.054 0.213-0.2 0.28-0.44 0.2-0.133-0.053-0.199-0.187-0.199-0.4 0.026-0.24 0.119-0.373 0.279-0.4z" fill="url(#bs)"/>
		<path d="m31.097 16.138c-0.054-0.32 0.013-0.479 0.199-0.479l-0.039 0.84c-0.108-0.054-0.16-0.174-0.16-0.361z" fill="#4D4027"/>
			<linearGradient id="bt" x1="-1036.6" x2="-1035.5" y1="201.48" y2="201.48" gradientTransform="matrix(-.0924 -.7946 .7931 -.1057 -224.3 -785.85)" gradientUnits="userSpaceOnUse">
			<stop stop-color="#C1A064" offset="0"/>
			<stop stop-color="#706341" offset="1"/>
		</linearGradient>
		<path d="m31.097 16.138c-0.054-0.32 0.013-0.479 0.199-0.479l-0.039 0.84c-0.108-0.054-0.16-0.174-0.16-0.361z" fill="url(#bt)"/>
		<path d="m30.456 13.938c0 0.213-0.039 0.374-0.12 0.48-0.16 0.213-0.333 0.267-0.52 0.16l-0.2-0.32h0.08l-0.12-0.08-0.28-0.28-0.12-0.2-0.04-0.16c0.16-0.16 0.494-0.147 1 0.04 0.187 0.053 0.294 0.173 0.32 0.36z" fill="#615031"/>
			<linearGradient id="bu" x1="-1032.7" x2="-1031.2" y1="189.06" y2="189.06" gradientTransform="matrix(-.1009 -.7936 .7936 -.1009 -224.3 -785.85)" gradientUnits="userSpaceOnUse">
			<stop stop-color="#C1A064" offset="0"/>
			<stop stop-color="#706341" offset="1"/>
		</linearGradient>
		<path d="m30.456 13.938c0 0.213-0.039 0.374-0.12 0.48-0.16 0.213-0.333 0.267-0.52 0.16l-0.2-0.32h0.08l-0.12-0.08-0.28-0.28-0.12-0.2-0.04-0.16c0.16-0.16 0.494-0.147 1 0.04 0.187 0.053 0.294 0.173 0.32 0.36z" fill="url(#bu)"/>
		<radialGradient id="bv" cx="1082.5" cy="-31.736" r="19.449" gradientTransform="matrix(.205 .7733 .7862 -.2084 -174.81 -798.97)" gradientUnits="userSpaceOnUse">
		<stop stop-color="#FBF5E2" offset="0"/>
		<stop stop-color="#F6F0DB" offset=".0706"/>
		<stop stop-color="#E3DCC1" offset=".4314"/>
		<stop stop-color="#D7D0B1" offset=".749"/>
		<stop stop-color="#D3CCAC" offset="1"/>
	</radialGradient>
	<path d="m17.657 42.498c1.893 1.093 4.919 1.68 9.08 1.76 2.08 0.026 3.96-0.054 5.64-0.24v1.399c0.027 1.121 0.08 2.174 0.16 3.16 0.107 1.574-0.08 3.613-0.561 6.12-0.266 0.24-0.8 0.453-1.6 0.641-1.6 0.373-3.706 0.466-6.319 0.279-1.867-0.133-3.453-0.506-4.76-1.119l-1.44-0.921c-0.8-0.746-1.307-1.853-1.52-3.319-0.293-2.026-0.16-3.92 0.4-5.681l0.92-2.079z" fill="url(#bv)"/>
			<radialGradient id="a" cx="1084.9" cy="5.8408" r="9.1544" gradientTransform="matrix(.2316 .7657 .7657 -.2316 -233.25 -783.14)" gradientUnits="userSpaceOnUse">
			<stop stop-color="#745C30" offset="0"/>
			<stop stop-color="#4A3611" offset=".7725"/>
			<stop stop-color="#3D2A07" offset="1"/>
		</radialGradient>
		<path d="m24.017 51.658c0.08-0.187 0.053-0.32-0.081-0.4l-0.08 0.04c-0.187 0-0.28 0.08-0.28 0.24-0.027 0.16 0.013 0.266 0.12 0.32 0.134 0.053 0.24-0.014 0.321-0.2zm0.2-0.32l-0.041 0.04c-0.106 0.347-0.066 0.533 0.12 0.56 0.08 0 0.12-0.094 0.12-0.279 1e-3 -0.027-0.066-0.135-0.199-0.321zm-0.361-1.441c-0.053-0.64-0.374-0.986-0.96-1.039l-0.84-0.121c-0.347 0-0.521 0.188-0.521 0.561-0.026 0.427 0.081 0.8 0.32 1.119 0.24 0.294 0.52 0.468 0.84 0.521 0.027 0 0.267 0.054 0.72 0.16 0.187 0.054 0.293 0.026 0.32-0.08 0.135-0.374 0.175-0.747 0.121-1.121zm2.8 0.161c0.026-0.373-0.134-0.613-0.48-0.72-0.4-0.054-0.679-0.094-0.839-0.12-0.88-0.187-1.2 0.44-0.96 1.88 0.027 0.106 0.134 0.174 0.32 0.2 0.134 0 0.387 0.014 0.76 0.04 0.319 0.053 0.6-0.04 0.839-0.28 0.24-0.241 0.36-0.574 0.36-1zm0.361-2.36c0.24 0.319 0.373 0.666 0.4 1.039 0.053 0.4 0 0.88-0.16 1.44s-0.348 0.934-0.561 1.12l-0.6 0.439 0.399-0.12c0.134-0.026 0.214 0.026 0.24 0.16 0.053 0.134 0.013 0.254-0.12 0.36-0.24 0.24-0.48 0.373-0.72 0.399-0.16 0.027-0.32 0.014-0.48-0.039-0.16-0.055-0.267-0.094-0.32-0.12l0.16 0.239-0.2 0.681-0.081 0.52-0.52-0.04-0.04 0.04-0.88-0.12v-0.039l-0.56-0.16-0.04-0.521-0.16-0.72c0.187-0.134 0.241-0.2 0.16-0.2-0.133 0.027-0.24 0.04-0.319 0.04-0.16 0-0.32-0.026-0.48-0.08-0.24-0.159-0.479-0.374-0.719-0.64-0.107-0.134-0.134-0.267-0.081-0.4 0.053-0.106 0.133-0.134 0.24-0.08l0.4 0.24-0.559-0.64c-0.213-0.267-0.387-0.694-0.521-1.28s-0.173-1.066-0.12-1.44c0.054-0.373 0.213-0.692 0.48-0.96 0.213-0.267 0.479-0.427 0.8-0.479 0.64-0.106 1.333-0.08 2.08 0.079 0.827 0.081 1.521 0.268 2.081 0.561 0.294 0.134 0.56 0.374 0.801 0.721z" fill="url(#a)"/>
			<radialGradient id="bw" cx="1084.9" cy="5.8408" r="9.1573" gradientTransform="matrix(.2316 .7657 .7657 -.2316 -233.25 -783.14)" gradientUnits="userSpaceOnUse">
			<stop stop-color="#745C30" offset="0"/>
			<stop stop-color="#4A3611" offset=".7725"/>
			<stop stop-color="#3D2A07" offset="1"/>
		</radialGradient>
		<path d="m29.496 46.458c0.214 0.319 0.174 0.8-0.12 1.439l0.36 0.12c0.213 0.134 0.32 0.347 0.32 0.641 0.026 0.506-0.294 0.974-0.96 1.399-0.293 0.16-0.574-0.146-0.84-0.92l-1.36 0.8c0.053-0.373-0.026-0.72-0.24-1.04l1.36-0.8c-0.027-0.213-0.054-0.427-0.08-0.64 0-0.48 0.094-0.773 0.28-0.881 0.614-0.452 1.041-0.491 1.28-0.118z" fill="url(#bw)"/>
			<radialGradient id="bx" cx="1084.9" cy="5.8408" r="9.158" gradientTransform="matrix(.2316 .7657 .7657 -.2316 -233.25 -783.14)" gradientUnits="userSpaceOnUse">
			<stop stop-color="#745C30" offset="0"/>
			<stop stop-color="#4A3611" offset=".7725"/>
			<stop stop-color="#3D2A07" offset="1"/>
		</radialGradient>
		<path d="m18.576 44.817c0.187-0.319 0.613-0.146 1.28 0.521 0.32 0.294 0.427 0.826 0.32 1.6l1.56 1.36-0.08 0.119c-0.134 0.215-0.2 0.468-0.2 0.761l-1.52-1.24c-0.213 0.694-0.467 0.906-0.76 0.64-0.693-0.586-1.053-1.146-1.08-1.68 0-0.293 0.12-0.48 0.36-0.56 0.106-0.054 0.213-0.066 0.32-0.04-0.319-0.694-0.386-1.187-0.2-1.481z" fill="url(#bx)"/>
		<path d="m22.457 51.577l-0.52 0.121c-0.32 0.105-0.693 0.187-1.12 0.239l-0.56 0.04c0.16 0.907 0.093 1.387-0.2 1.439-0.613 0.107-1.04-0.093-1.28-0.6-0.133-0.293-0.146-0.6-0.04-0.92l0.16-0.359c-0.453-0.4-0.693-0.84-0.72-1.32 0-0.507 0.333-0.76 1-0.76 0.293 0.026 0.573 0.493 0.84 1.4l1.56-0.2c0.133 0.454 0.426 0.76 0.88 0.92z" fill="url(#a)"/>
		<path d="m30.136 51.978c0.027 0.48-0.187 0.854-0.64 1.12l0.2 0.439c0.107 0.348 0.107 0.641 0 0.88-0.187 0.427-0.613 0.507-1.279 0.241-0.188-0.081-0.281-0.348-0.281-0.801l0.04-0.68c-0.613-0.24-1.187-0.507-1.72-0.8l-0.88-0.48c0.32-0.239 0.56-0.466 0.72-0.68l2.08 0.88c0.054-0.213 0.12-0.413 0.2-0.6 0.187-0.4 0.373-0.573 0.56-0.521 0.668 0.135 1 0.468 1 1.002z" fill="url(#a)"/>
</g>
</svg>
