<?xml version="1.0" encoding="UTF-8"?>
<!DOCTYPE svg  PUBLIC '-//W3C//DTD SVG 1.1//EN'  'http://www.w3.org/Graphics/SVG/1.1/DTD/svg11.dtd'>
<svg enable-background="new 0 0 52.85 59.35" version="1.1" viewBox="0 0 52.85 59.35" xml:space="preserve" xmlns="http://www.w3.org/2000/svg">
<g clip-rule="evenodd" fill-rule="evenodd">
			<radialGradient id="cl" cx="1153.6" cy="-12.53" r="18.043" gradientTransform="matrix(.3287 .7294 .7294 -.3287 -346.12 -800.59)" gradientUnits="userSpaceOnUse">
			<stop stop-color="#DCC0F1" stop-opacity=".6667" offset="0"/>
			<stop stop-color="#55436D" stop-opacity=".8471" offset=".9882"/>
		</radialGradient>
		<path d="m18.474 55.717c-2.027-2.159-3-4.719-2.919-7.68 0.053-0.666 0.133-1.293 0.24-1.879 0.934 0.666 2.307 1.227 4.12 1.68 1.84 0.453 3.879 0.706 6.12 0.76 2.399 0.053 4.6-0.12 6.6-0.521 1.92-0.399 3.307-0.96 4.16-1.68 0.134 0.854 0.187 1.587 0.16 2.2-0.08 2.96-1.187 5.467-3.32 7.52-2.16 2.026-4.72 3-7.68 2.92-2.934-0.079-5.427-1.186-7.481-3.32z" fill="url(#cl)"/>
			<radialGradient id="cw" cx="1151.7" cy="-36.149" r="13.838" gradientTransform="matrix(.3143 .7356 .701 -.3324 -312.91 -816.77)" gradientUnits="userSpaceOnUse">
			<stop stop-color="#B8A4D8" stop-opacity=".6667" offset="0"/>
			<stop stop-color="#A58ECE" stop-opacity=".8471" offset=".9882"/>
		</radialGradient>
		<path d="m18.754 43.678c2.053-0.479 4.547-0.693 7.48-0.64 2.906 0.079 5.399 0.413 7.479 1 2.054 0.586 3.066 1.253 3.04 1.999-0.026 0.747-1.08 1.36-3.16 1.84-2.053 0.48-4.547 0.681-7.479 0.601-2.934-0.08-5.427-0.413-7.48-1s-3.066-1.253-3.04-2c0.027-0.747 1.08-1.346 3.16-1.8z" fill="url(#cw)"/>
		<path d="m15.594 45.558c0.042 0.713 1.055 1.353 3.04 1.92 2.053 0.587 4.546 0.92 7.48 1 2.933 0.08 5.427-0.12 7.479-0.601 2.043-0.471 3.097-1.07 3.16-1.8-0.053 0.835-0.906 1.515-2.56 2.04-1.947 0.614-4.601 0.867-7.96 0.76-3.387-0.079-6.067-0.479-8.04-1.199-1.706-0.621-2.573-1.328-2.599-2.12z" fill="#E6DCFE"/>
				<radialGradient id="bg" cx="1144.1" cy="-198.25" r="2.3045" gradientTransform="matrix(.2083 .7724 .7724 -.2083 -58.145 -874.94)" gradientUnits="userSpaceOnUse">
				<stop stop-color="#fff" offset="0"/>
				<stop stop-color="#E2DBF4" offset=".1647"/>
				<stop stop-color="#75608E" stop-opacity=".8471" offset=".8588"/>
				<stop stop-color="#8B77AA" stop-opacity=".8471" offset="1"/>
			</radialGradient>
			<path d="m28.674 50.558c0 0.4-0.146 0.733-0.439 1s-0.653 0.4-1.08 0.4c-0.427-0.026-0.773-0.174-1.04-0.44-0.293-0.293-0.44-0.641-0.44-1.04 0.027-0.374 0.187-0.693 0.48-0.96s0.653-0.4 1.08-0.4c0.426 0.026 0.773 0.174 1.039 0.44 0.293 0.293 0.427 0.627 0.4 1z" fill="url(#bg)"/>
				<radialGradient id="br" cx="1139.5" cy="-187.97" r="1.3463" gradientTransform="matrix(.208 .7725 .7725 -.208 -73.987 -870.54)" gradientUnits="userSpaceOnUse">
				<stop stop-color="#fff" offset="0"/>
				<stop stop-color="#E2DBF4" offset=".1647"/>
				<stop stop-color="#75608E" stop-opacity=".8471" offset=".8588"/>
				<stop stop-color="#8B77AA" stop-opacity=".8471" offset="1"/>
			</radialGradient>
			<path d="m18.754 49.077c0 0.214-0.081 0.4-0.24 0.561-0.187 0.16-0.4 0.239-0.641 0.239-0.24 0-0.453-0.079-0.64-0.239-0.16-0.16-0.24-0.36-0.24-0.601 0-0.239 0.093-0.439 0.28-0.6s0.4-0.227 0.641-0.2c0.24 0 0.44 0.08 0.6 0.24 0.187 0.161 0.267 0.361 0.24 0.6z" fill="url(#br)"/>
				<radialGradient id="bx" cx="1140.3" cy="-192.9" r="1.3463" gradientTransform="matrix(.208 .7725 .7725 -.208 -66.382 -872.59)" gradientUnits="userSpaceOnUse">
				<stop stop-color="#fff" offset="0"/>
				<stop stop-color="#E2DBF4" offset=".1647"/>
				<stop stop-color="#75608E" stop-opacity=".8471" offset=".8588"/>
				<stop stop-color="#8B77AA" stop-opacity=".8471" offset="1"/>
			</radialGradient>
			<path d="m22.754 48.638c-0.026 0.239-0.12 0.439-0.28 0.6-0.187 0.16-0.4 0.227-0.64 0.2-0.24 0-0.44-0.08-0.6-0.24-0.187-0.16-0.266-0.359-0.24-0.6 0-0.213 0.093-0.4 0.28-0.561 0.16-0.16 0.36-0.239 0.6-0.239 0.241 0 0.454 0.079 0.641 0.239 0.159 0.188 0.239 0.387 0.239 0.601z" fill="url(#bx)"/>
				<radialGradient id="by" cx="1139.9" cy="-201.28" r="1.3463" gradientTransform="matrix(.208 .7725 .7725 -.208 -53.423 -876.07)" gradientUnits="userSpaceOnUse">
				<stop stop-color="#fff" offset="0"/>
				<stop stop-color="#E2DBF4" offset=".1647"/>
				<stop stop-color="#75608E" stop-opacity=".8471" offset=".8588"/>
				<stop stop-color="#8B77AA" stop-opacity=".8471" offset="1"/>
			</radialGradient>
			<path d="m29.154 46.638c0 0.213-0.094 0.399-0.28 0.56s-0.4 0.24-0.64 0.24c-0.24-0.026-0.44-0.12-0.601-0.279-0.187-0.16-0.267-0.36-0.239-0.601 0-0.214 0.093-0.399 0.279-0.56 0.16-0.16 0.36-0.24 0.6-0.24 0.587 0.054 0.881 0.346 0.881 0.88z" fill="url(#by)"/>
				<radialGradient id="bz" cx="1145.9" cy="-189.49" r="2.2924" gradientTransform="matrix(.2094 .7721 .7721 -.2094 -71.792 -871.7)" gradientUnits="userSpaceOnUse">
				<stop stop-color="#fff" offset="0"/>
				<stop stop-color="#E2DBF4" offset=".1647"/>
				<stop stop-color="#75608E" stop-opacity=".8471" offset=".8588"/>
				<stop stop-color="#8B77AA" stop-opacity=".8471" offset="1"/>
			</radialGradient>
			<path d="m23.474 53.197c0 0.4-0.146 0.734-0.439 1-0.293 0.267-0.653 0.387-1.08 0.36-0.4 0-0.747-0.134-1.04-0.399-0.294-0.294-0.427-0.641-0.4-1.041 0-0.373 0.146-0.693 0.44-0.959 0.293-0.268 0.653-0.4 1.08-0.4 0.426 0.026 0.773 0.174 1.04 0.439 0.293 0.293 0.426 0.627 0.399 1z" fill="url(#bz)"/>
				<radialGradient id="cc" cx="1147.3" cy="-201.27" r="1.3737" gradientTransform="matrix(.2111 .7716 .7716 -.2111 -53.79 -877.33)" gradientUnits="userSpaceOnUse">
				<stop stop-color="#fff" offset="0"/>
				<stop stop-color="#E2DBF4" offset=".1647"/>
				<stop stop-color="#75608E" stop-opacity=".8471" offset=".8588"/>
				<stop stop-color="#8B77AA" stop-opacity=".8471" offset="1"/>
			</radialGradient>
			<path d="m34.114 50.798c-0.027 0.239-0.12 0.439-0.28 0.6-0.187 0.16-0.4 0.227-0.64 0.2-0.267 0-0.48-0.08-0.641-0.24-0.187-0.187-0.267-0.387-0.239-0.6 0-0.24 0.093-0.44 0.279-0.6 0.16-0.16 0.374-0.241 0.64-0.241 0.24 0 0.453 0.094 0.641 0.28 0.16 0.16 0.24 0.361 0.24 0.601z" fill="url(#cc)"/>
				<radialGradient id="dd" cx="1003.9" cy="-547.22" r="1.8909" gradientTransform="matrix(-.0529 .7982 1.348 .1057 809.73 -700.26)" gradientUnits="userSpaceOnUse">
				<stop stop-color="#fff" offset="0"/>
				<stop stop-color="#E2DBF4" offset=".1647"/>
				<stop stop-color="#75608E" stop-opacity=".8471" offset=".8588"/>
				<stop stop-color="#8B77AA" stop-opacity=".8471" offset="1"/>
			</radialGradient>
			<path d="m18.874 44.718c-0.667-0.027-1.12-0.16-1.359-0.4 0.08-0.346 0.253-0.627 0.52-0.84s0.573-0.307 0.92-0.279c0.347 0 0.64 0.133 0.879 0.399 0.267 0.24 0.427 0.546 0.48 0.92-0.399 0.16-0.88 0.226-1.44 0.2z" fill="url(#dd)"/>
				<radialGradient id="ca" cx="1004.8" cy="-560.66" r="1.4784" gradientTransform="matrix(-.0541 .7982 1.3528 .1082 841.2 -695.9)" gradientUnits="userSpaceOnUse">
				<stop stop-color="#fff" offset="0"/>
				<stop stop-color="#E2DBF4" offset=".1647"/>
				<stop stop-color="#75608E" stop-opacity=".8471" offset=".8588"/>
				<stop stop-color="#8B77AA" stop-opacity=".8471" offset="1"/>
			</radialGradient>
			<path d="m28.273 46.558c-0.532 0-0.893-0.094-1.079-0.28 0.134-0.613 0.507-0.919 1.12-0.919 0.613 0.053 0.959 0.399 1.04 1.039-0.267 0.133-0.626 0.186-1.081 0.16z" fill="url(#ca)"/>
				<radialGradient id="cb" cx="1005.6" cy="-556.47" r="2.2051" gradientTransform="matrix(-.0544 .7981 1.3469 .1088 828.84 -695.93)" gradientUnits="userSpaceOnUse">
				<stop stop-color="#fff" offset="0"/>
				<stop stop-color="#E2DBF4" offset=".1647"/>
				<stop stop-color="#75608E" stop-opacity=".8471" offset=".8588"/>
				<stop stop-color="#8B77AA" stop-opacity=".8471" offset="1"/>
			</radialGradient>
			<path d="m22.915 47.397c0.106-0.399 0.306-0.733 0.6-1 0.319-0.267 0.666-0.387 1.04-0.36 0.427 0.027 0.787 0.188 1.08 0.48 0.294 0.267 0.468 0.626 0.521 1.08-0.56 0.187-1.107 0.267-1.64 0.24-0.802-0.026-1.335-0.173-1.601-0.44z" fill="url(#cb)"/>
				<radialGradient id="cd" cx="1004" cy="-573.98" r="1.555" gradientTransform="matrix(-.0605 .7977 1.7164 .1303 1078.6 -682.82)" gradientUnits="userSpaceOnUse">
				<stop stop-color="#fff" offset="0"/>
				<stop stop-color="#E2DBF4" offset=".1647"/>
				<stop stop-color="#75608E" stop-opacity=".8471" offset=".8588"/>
				<stop stop-color="#8B77AA" stop-opacity=".8471" offset="1"/>
			</radialGradient>
			<path d="m32.594 44.478c-0.692-0.026-1.173-0.134-1.439-0.319 0.08-0.268 0.267-0.494 0.561-0.681 0.266-0.187 0.572-0.279 0.919-0.279 0.826 0.053 1.307 0.426 1.439 1.119-0.346 0.133-0.841 0.186-1.48 0.16z" fill="url(#cd)"/>
		<radialGradient id="ce" cx="1002.6" cy="-520.88" r="24.65" gradientTransform="matrix(-.0251 .7996 1.5651 .0492 867.33 -753.66)" gradientUnits="userSpaceOnUse">
		<stop stop-color="#fff" stop-opacity=".2588" offset="0"/>
		<stop stop-color="#EBEBEB" stop-opacity=".3686" offset=".1647"/>
		<stop stop-color="#E0E0E0" stop-opacity=".4588" offset=".8588"/>
		<stop stop-color="#EDEDED" stop-opacity=".2275" offset="1"/>
	</radialGradient>
	<path d="m24.114 38.998l-0.72-1.24c0-1.44 0.293-2.707 0.88-3.8 0.534-0.747 0.88-1.24 1.041-1.48 0.24-0.373 0.28-0.893 0.12-1.56-0.08-0.453-0.44-1.32-1.08-2.601-0.561-1.146-0.84-1.986-0.84-2.52-0.027-0.613 0.479-1.253 1.52-1.92 1.146-0.613 1.84-1 2.08-1.16 0.479-0.32 0.373-0.759-0.32-1.32h1.32c0.933 0.053 1.546 0.293 1.84 0.72 0.293 0.4 0.026 0.907-0.8 1.52-0.427 0.32-0.881 0.587-1.36 0.8l-1 0.76c-0.507 0.666-0.373 1.36 0.4 2.08 0.106 0.107 0.533 0.333 1.279 0.68 0.667 0.427 0.974 0.88 0.921 1.359-0.054 0.427-0.227 0.907-0.521 1.44-0.293 0.533-0.44 0.934-0.44 1.2 0 0.187-0.253 0.586-0.76 1.2-0.479 0.532-0.64 1.106-0.479 1.72 0.106 0.399 0.36 1.039 0.76 1.92 0.267 0.533 0.307 0.88 0.12 1.04-0.16 0.187 0.213 0.387 1.12 0.6 1.173 0.294 1.893 0.521 2.16 0.68 1.52 0.96 2.719 2.28 3.6 3.96 0.933 1.761 1.467 2.694 1.6 2.801 0.747 0.586 0.387 1.173-1.08 1.76-1.76 0.72-4.479 1.026-8.159 0.92-3.573-0.08-6.427-0.547-8.56-1.399-1.787-0.721-2.467-1.254-2.04-1.601 0.08-0.054 0.573-0.84 1.48-2.359 0.879-1.44 1.6-2.32 2.16-2.641 0.506-0.293 1.2-0.293 2.08 0 0.8 0.267 1.36 0.254 1.68-0.04 0.399-0.346 0.399-0.853-2e-3 -1.519z" fill="url(#ce)"/>
			<radialGradient id="cf" cx="1102.8" cy="-340.58" r="17.867" gradientTransform="matrix(.1093 .7925 .7259 -.1001 152.75 -863.64)" gradientUnits="userSpaceOnUse">
			<stop stop-color="#fff" stop-opacity=".4784" offset="0"/>
			<stop stop-color="#fff" stop-opacity=".0824" offset=".7098"/>
			<stop stop-color="#fff" stop-opacity=".2" offset=".8667"/>
			<stop stop-color="#fff" stop-opacity=".0275" offset="1"/>
		</radialGradient>
		<path d="m15.994 43.838c1.147-2.934 3.134-5.04 5.96-6.32 2.853-1.307 5.719-1.386 8.6-0.24 2.879 1.12 4.933 3.12 6.159 6 1.227 2.881 1.254 5.787 0.08 8.721-1.146 2.934-3.146 5.039-6 6.319-2.853 1.28-5.707 1.359-8.56 0.24-2.879-1.146-4.933-3.146-6.16-6-1.199-2.88-1.225-5.787-0.079-8.72z" fill="url(#cf)"/>
			<radialGradient id="cg" cx="-326.32" cy="1114.1" r="24.783" gradientTransform="matrix(.6065 -.5217 -.5217 -.6065 798.11 558.97)" gradientUnits="userSpaceOnUse">
			<stop stop-color="#fff" stop-opacity=".949" offset="0"/>
			<stop stop-color="#8A9B9E" offset="1"/>
		</radialGradient>
		<path d="m22.234 58.558c-2.879-1.146-4.933-3.146-6.16-6-1.2-2.88-1.227-5.786-0.08-8.72s3.134-5.04 5.96-6.32c2.853-1.307 5.719-1.386 8.6-0.24 2.879 1.12 4.933 3.12 6.159 6 1.227 2.881 1.254 5.787 0.08 8.721-1.146 2.934-3.146 5.039-6 6.319-2.852 1.28-5.706 1.359-8.559 0.24zm-6.04-14.8c-1.12 2.88-1.08 5.732 0.12 8.56 1.2 2.8 3.213 4.76 6.04 5.88 2.853 1.093 5.666 1.014 8.439-0.239 2.8-1.254 4.76-3.32 5.88-6.2 1.12-2.854 1.08-5.693-0.12-8.521-1.199-2.826-3.213-4.786-6.039-5.879-2.827-1.094-5.627-1.027-8.4 0.199-2.8 1.254-4.773 3.32-5.92 6.2z" fill="url(#cg)"/>
			<radialGradient id="ch" cx="1107" cy="-268.39" r="12.787" gradientTransform="matrix(.1611 .7836 .8876 -.147 85.81 -866.92)" gradientUnits="userSpaceOnUse">
			<stop stop-color="#fff" stop-opacity=".5882" offset="0"/>
			<stop stop-color="#fff" stop-opacity="0" offset="1"/>
		</radialGradient>
		<path d="m19.274 51.877c-1.759-0.586-2.72-1.986-2.879-4.199-0.134-1.894 0.279-3.693 1.24-5.4 0.426-0.773 1.067-1.466 1.92-2.079 0.667-0.508 1.147-0.773 1.44-0.801 0.107 0 0.2 0.146 0.28 0.44 0.294 0.373 1 0.747 2.12 1.12 1.173 0.4 2.493 0.533 3.96 0.4 0.747-0.055 1.373-0.16 1.88-0.32 1.76 0.613 2.853 1.934 3.28 3.96 0.213 1.013 0.253 1.973 0.119 2.879l-0.08 1.281c-0.213 1.013-0.64 1.853-1.28 2.52-2.106 2.106-6.107 2.173-12 0.199z" fill="url(#ch)"/>
			<radialGradient id="ci" cx="1119.3" cy="-278.95" r="8.3963" gradientTransform="matrix(.1611 .7836 .8671 -.1783 96.071 -887.02)" gradientUnits="userSpaceOnUse">
			<stop stop-color="#fff" stop-opacity=".6196" offset="0"/>
			<stop stop-color="#fff" stop-opacity=".0275" offset="1"/>
		</radialGradient>
		<path d="m31.314 38.958l-0.36-0.8 2 1.279c1.439 1.147 2.453 2.4 3.04 3.761 0.587 1.387 0.853 2.879 0.8 4.479-0.026 0.8-0.107 1.466-0.24 2l-1.84 0.32c0.16-0.188 0.28-0.521 0.359-1 0.16-0.934 0.067-2.147-0.279-3.64-0.347-1.468-1.04-2.773-2.08-3.921l-1.44-1.279c0.213-0.213 0.227-0.613 0.04-1.199z" fill="url(#ci)"/>
			<linearGradient id="cj" x1="829.14" x2="839.61" y1="788.6" y2="788.6" gradientTransform="matrix(.7447 .2922 -.2922 .7447 -364.4 -792.35)" gradientUnits="userSpaceOnUse">
			<stop stop-color="#fff" stop-opacity=".949" offset="0"/>
			<stop stop-color="#ABD9DB" offset="1"/>
		</linearGradient>
		<path d="m23.594 37.638c-0.827 0.294-1.253 0.653-1.28 1.08-0.027 0.399 0.32 0.746 1.04 1.04 0.36 0.159 0.766 0.286 1.219 0.38-0.483-0.089-0.917-0.216-1.3-0.38-0.772-0.32-1.146-0.693-1.12-1.12 0.027-0.453 0.48-0.826 1.36-1.12 0.879-0.293 1.933-0.427 3.159-0.4 1.228 0.026 2.268 0.2 3.12 0.521 0.854 0.347 1.267 0.733 1.24 1.16-0.026 0.4-0.427 0.746-1.2 1.04-0.039 0.014-0.08 0.028-0.119 0.04 0.746-0.293 1.133-0.641 1.159-1.04 0.027-0.427-0.373-0.787-1.2-1.08-0.826-0.32-1.826-0.493-3-0.521-1.198-0.027-2.225 0.106-3.078 0.4z" fill="url(#cj)"/>
			<linearGradient id="ck" x1="700.72" x2="710.05" y1="906.12" y2="906.12" gradientTransform="matrix(.7804 .1758 -.1758 .7804 -364.4 -792.35)" gradientUnits="userSpaceOnUse">
			<stop stop-opacity=".2471" offset="0"/>
			<stop stop-opacity=".0275" offset="1"/>
		</linearGradient>
		<path d="m23.594 37.638c0.853-0.294 1.879-0.427 3.08-0.4 1.174 0.027 2.174 0.2 3 0.521 0.827 0.293 1.228 0.653 1.2 1.08-0.026 0.427-0.467 0.786-1.319 1.079-0.854 0.294-1.867 0.427-3.04 0.4-1.174-0.026-2.174-0.186-3-0.479-0.828-0.32-1.228-0.694-1.2-1.12 0.026-0.428 0.453-0.787 1.279-1.081z" fill="url(#ck)"/>
			<linearGradient id="cm" x1="-1110.1" x2="-1103.3" y1="212.66" y2="212.66" gradientTransform="matrix(-.205 -.7733 .7733 -.205 -364.4 -792.35)" gradientUnits="userSpaceOnUse">
			<stop stop-color="#fff" stop-opacity=".2196" offset="0"/>
			<stop stop-color="#fff" stop-opacity=".0275" offset="1"/>
		</linearGradient>
		<path d="m23.114 21.478c-1.013-0.506-1.507-1.093-1.48-1.76 0.026-0.667 0.56-1.227 1.6-1.68 1.067-0.427 2.333-0.626 3.8-0.6 1.467 0.053 2.707 0.32 3.72 0.8 1.04 0.48 1.547 1.053 1.52 1.721-0.026 0.666-0.572 1.227-1.64 1.68-1.04 0.453-2.293 0.653-3.76 0.6-1.467-0.028-2.72-0.281-3.76-0.761zm0.88-3.32c-0.827 0.293-1.253 0.667-1.28 1.12 0 0.453 0.4 0.84 1.2 1.16 0.827 0.347 1.827 0.534 3 0.56 1.173 0.027 2.173-0.107 3-0.4 0.827-0.32 1.254-0.707 1.28-1.16s-0.374-0.84-1.2-1.16c-0.826-0.347-1.826-0.533-3-0.56-1.173-0.027-2.173 0.12-3 0.44z" fill="url(#cm)"/>
			<linearGradient id="cn" x1="510.91" x2="521.94" y1="1015.3" y2="1015.3" gradientTransform="matrix(.7997 .0215 -.0215 .7997 -364.4 -792.35)" gradientUnits="userSpaceOnUse">
			<stop stop-color="#fff" stop-opacity=".2196" offset="0"/>
			<stop stop-color="#fff" stop-opacity=".0275" offset="1"/>
		</linearGradient>
		<path d="m22.354 38.638l0.08-0.279 0.24-17.641c0.16 0.427 0.641 0.787 1.44 1.081 0.773 0.266 1.693 0.413 2.76 0.439 1.04 0.027 1.974-0.093 2.8-0.36 0.8-0.267 1.307-0.6 1.521-1l-0.24 17.6c0.054 0.16 0.066 0.267 0.04 0.32-0.026 0.506-0.467 0.92-1.32 1.24-0.854 0.347-1.88 0.506-3.08 0.479-1.173-0.026-2.173-0.214-3-0.56-0.854-0.372-1.267-0.813-1.241-1.319z" fill="url(#cn)"/>
			<linearGradient id="co" x1="511.25" x2="520.78" y1="1015.3" y2="1015.3" gradientTransform="matrix(.7997 .0211 -.0211 .7997 -364.4 -792.35)" gradientUnits="userSpaceOnUse">
			<stop stop-color="#fff" stop-opacity=".2196" offset="0"/>
			<stop stop-color="#fff" stop-opacity=".0275" offset="1"/>
		</linearGradient>
		<path d="m24.034 39.198c-0.72-0.348-1.066-0.761-1.04-1.24l0.04-0.32 0.2-16.36c0.853 0.56 2.053 0.853 3.6 0.88 1.573 0.053 2.813-0.2 3.721-0.76l-0.2 16.36 0.04 0.319c-0.027 0.48-0.4 0.881-1.121 1.2-0.746 0.347-1.626 0.507-2.64 0.48-1.013-0.026-1.88-0.213-2.6-0.559z" fill="url(#co)"/>
				<linearGradient id="cp" x1="511.59" x2="522.42" y1="1027" y2="1027" gradientTransform="matrix(.7997 .0219 -.0219 .7997 -364.4 -792.35)" gradientUnits="userSpaceOnUse">
				<stop stop-color="#fff" stop-opacity=".949" offset="0"/>
				<stop stop-color="#ABD9DB" offset="1"/>
			</linearGradient>
			<path d="m27.954 40.358c-0.587 0.053-1.04 0.079-1.36 0.079-0.853-0.053-1.573-0.146-2.16-0.279l-0.12-0.16c0.693 0.187 1.533 0.293 2.52 0.319l1.12 0.041z" fill="url(#cp)"/>
				<linearGradient id="cq" x1="510.19" x2="522.72" y1="1015" y2="1015" gradientTransform="matrix(.7997 .0209 -.0209 .7997 -364.4 -792.35)" gradientUnits="userSpaceOnUse">
				<stop stop-color="#fff" stop-opacity=".949" offset="0"/>
				<stop stop-color="#809C89" offset="1"/>
			</linearGradient>
			<path d="m22.634 20.598l0.32 0.44c-0.08 1.76-0.133 7.094-0.16 16l0.04 0.079-0.04 0.12c0.027 0.801 0.227 1.427 0.6 1.88l-0.16 0.081c-0.24-0.134-0.413-0.188-0.52-0.16-0.08 0-0.067 0.066 0.04 0.199l0.24 0.24v0.08c-0.453-0.32-0.667-0.653-0.64-1 0-0.133 0.026-0.24 0.08-0.32l0.2-17.639z" fill="url(#cq)"/>
				<linearGradient id="cr" x1="475.78" x2="486.23" y1="1031.6" y2="1031.6" gradientTransform="matrix(.8 -.0057 .0057 .8 -364.4 -792.35)" gradientUnits="userSpaceOnUse">
				<stop stop-color="#fff" stop-opacity=".949" offset="0"/>
				<stop stop-color="#9AAFB8" offset="1"/>
			</linearGradient>
			<path d="m30.954 38.397l0.04 0.32c0 0.267-0.16 0.533-0.479 0.8-0.081-0.133-0.214-0.227-0.4-0.28 0.159-0.187 0.28-0.426 0.359-0.72l0.16-0.52 0.2-16.16c0.026-0.213-0.014-0.333-0.119-0.36-0.055 0-0.228 0.08-0.521 0.24v-0.16c0.533-0.213 0.853-0.48 0.96-0.8l-0.2 17.64z" fill="url(#cr)"/>
				<linearGradient id="cs" x1="1009.5" x2="1020" y1="-512.84" y2="-512.84" gradientTransform="matrix(-.0212 .7997 -.7997 -.0212 -364.4 -792.35)" gradientUnits="userSpaceOnUse">
				<stop stop-color="#fff" stop-opacity=".4196" offset="0"/>
				<stop stop-color="#fff" stop-opacity=".0275" offset="1"/>
			</linearGradient>
			<path d="m23.394 39.117l0.16-0.079 0.24-17.48c0.32 0.16 0.773 0.307 1.36 0.44l-0.24 17.6c-0.081 0-0.121 0.054-0.121 0.16l0.121 0.12v0.039l-0.56-0.239-0.121 0.04c-0.08 0-0.053 0.094 0.081 0.28-0.48-0.134-0.92-0.308-1.32-0.521 0.026-0.106 0.107-0.2 0.24-0.279l0.2 0.16 0.44 0.239-0.48-0.48z" fill="url(#cs)"/>
				<linearGradient id="ct" x1="510.61" x2="521.36" y1="1026.5" y2="1026.5" gradientTransform="matrix(.7997 .0211 -.0211 .7997 -364.4 -792.35)" gradientUnits="userSpaceOnUse">
				<stop stop-color="#fff" stop-opacity=".949" offset="0"/>
				<stop stop-color="#ABD9DB" offset="1"/>
			</linearGradient>
			<polygon points="23.234 39.198 23.394 39.117 23.874 39.598 23.434 39.358" fill="url(#ct)"/>
				<linearGradient id="cu" x1="1019.5" x2="1024" y1="-512.54" y2="-512.54" gradientTransform="matrix(-.0214 .7997 -.7997 -.0214 -364.4 -792.35)" gradientUnits="userSpaceOnUse">
				<stop stop-color="#fff" stop-opacity=".4196" offset="0"/>
				<stop stop-color="#fff" stop-opacity=".0275" offset="1"/>
			</linearGradient>
			<polygon points="23.234 39.198 23.394 39.117 23.874 39.598 23.434 39.358" fill="url(#cu)"/>
				<linearGradient id="cv" x1="492.3" x2="492.57" y1="1033.3" y2="1022.8" gradientTransform="matrix(.8 0 0 .8 -364.4 -792.35)" gradientUnits="userSpaceOnUse">
				<stop stop-color="#fff" stop-opacity=".1373" offset="0"/>
				<stop stop-color="#fff" stop-opacity=".0275" offset="1"/>
			</linearGradient>
			<path d="m28.834 21.998l0.521-0.12c0.319 0 0.587-0.053 0.8-0.16h0.04l-0.2 17.44 0.12 0.079c-0.16 0.188-0.347 0.348-0.56 0.48 0.506-0.16 0.719-0.16 0.64 0-0.214 0.133-0.561 0.267-1.04 0.399 0.133-0.186 0.174-0.293 0.119-0.319l-0.119-0.04-0.561 0.2 0.24-17.959z" fill="url(#cv)"/>
				<linearGradient id="cx" x1="509.86" x2="521.44" y1="1004.4" y2="1004.4" gradientTransform="matrix(.7997 .0209 -.0209 .7997 -364.4 -792.35)" gradientUnits="userSpaceOnUse">
				<stop stop-color="#fff" offset="0"/>
				<stop stop-color="#ABD9DB" offset="1"/>
			</linearGradient>
			<path d="m30.154 21.718c-0.213 0.107-0.48 0.16-0.8 0.16 0.267-0.053 0.547-0.16 0.84-0.32v0.16h-0.04z" fill="url(#cx)"/>
				<linearGradient id="cy" x1="492.54" x2="492.67" y1="1024.4" y2="1019.9" gradientTransform="matrix(.8 0 0 .8 -364.4 -792.35)" gradientUnits="userSpaceOnUse">
				<stop stop-color="#fff" stop-opacity=".1373" offset="0"/>
				<stop stop-color="#fff" stop-opacity=".0275" offset="1"/>
			</linearGradient>
			<path d="m30.154 21.718c-0.213 0.107-0.48 0.16-0.8 0.16 0.267-0.053 0.547-0.16 0.84-0.32v0.16h-0.04z" fill="url(#cy)"/>
				<linearGradient id="cz" x1="510.24" x2="521.8" y1="1026.6" y2="1026.6" gradientTransform="matrix(.7997 .0209 -.0209 .7997 -364.4 -792.35)" gradientUnits="userSpaceOnUse">
				<stop stop-color="#fff" offset="0"/>
				<stop stop-color="#ABD9DB" offset="1"/>
			</linearGradient>
			<path d="m30.114 39.237c0.187 0.054 0.319 0.147 0.4 0.28l-0.32 0.2c0.079-0.16-0.134-0.16-0.64 0 0.214-0.132 0.4-0.292 0.56-0.48z" fill="url(#cz)"/>
				<linearGradient id="da" x1="493.12" x2="493.23" y1="1037.5" y2="1033" gradientTransform="matrix(.8 0 0 .8 -364.4 -792.35)" gradientUnits="userSpaceOnUse">
				<stop stop-color="#fff" stop-opacity=".1373" offset="0"/>
				<stop stop-color="#fff" stop-opacity=".0275" offset="1"/>
			</linearGradient>
			<path d="m30.114 39.237c0.187 0.054 0.319 0.147 0.4 0.28l-0.32 0.2c0.079-0.16-0.134-0.16-0.64 0 0.214-0.132 0.4-0.292 0.56-0.48z" fill="url(#da)"/>
			<path d="m24.794 39.758c0-0.106 0.04-0.16 0.121-0.16 0.187-0.054 0.4-0.026 0.64 0.08 0.427 0.213 0.547 0.32 0.36 0.32-0.48 0-0.813-0.04-1-0.12l-0.121-0.12z" fill="#fff"/>
			<path d="m26.395 40.117c-0.107-0.026-0.134-0.079-0.08-0.159 0.08-0.08 0.173-0.107 0.279-0.08 0.134 0.026 0.16 0.08 0.08 0.16-0.08 0.106-0.173 0.133-0.279 0.079z" fill="#fff"/>
			<linearGradient id="db" x1="510.38" x2="520.96" y1="1001.5" y2="1001.5" gradientTransform="matrix(.7997 .021 -.021 .7997 -364.4 -792.35)" gradientUnits="userSpaceOnUse">
			<stop stop-opacity=".0863" offset="0"/>
			<stop stop-color="#BCD9DB" stop-opacity=".4196" offset="1"/>
		</linearGradient>
		<path d="m23.994 18.158c0.827-0.32 1.827-0.467 3-0.44 1.174 0.027 2.174 0.213 3 0.56 0.826 0.32 1.227 0.707 1.2 1.16s-0.453 0.84-1.28 1.16c-0.827 0.293-1.827 0.427-3 0.4-1.173-0.026-2.173-0.213-3-0.56-0.8-0.32-1.2-0.707-1.2-1.16 0.027-0.453 0.453-0.827 1.28-1.12z" fill="url(#db)"/>
			<linearGradient id="dc" x1="-1110.1" x2="-1103.3" y1="212.66" y2="212.66" gradientTransform="matrix(-.205 -.7733 .7733 -.205 -364.4 -792.35)" gradientUnits="userSpaceOnUse">
			<stop stop-color="#fff" stop-opacity=".949" offset="0"/>
			<stop stop-color="#9AAFB8" offset="1"/>
		</linearGradient>
		<path d="m23.114 21.478c-1.013-0.506-1.507-1.093-1.48-1.76 0.026-0.667 0.56-1.227 1.6-1.68 1.067-0.427 2.333-0.626 3.8-0.6 1.467 0.053 2.707 0.32 3.72 0.8 1.04 0.48 1.547 1.053 1.52 1.721-0.026 0.666-0.572 1.227-1.64 1.68-1.04 0.453-2.293 0.653-3.76 0.6-1.467-0.028-2.72-0.281-3.76-0.761zm0.32-3.36c-0.987 0.374-1.493 0.854-1.52 1.44-0.027 0.587 0.44 1.093 1.4 1.52 0.959 0.453 2.133 0.694 3.52 0.721 1.387 0.026 2.573-0.16 3.561-0.561 0.986-0.373 1.492-0.853 1.52-1.439 0.027-0.587-0.44-1.094-1.399-1.521-0.96-0.427-2.134-0.653-3.521-0.68s-2.574 0.147-3.561 0.52z" fill="url(#dc)"/>
			<linearGradient id="bc" x1="821.08" x2="831.07" y1="765.77" y2="765.77" gradientTransform="matrix(.7447 .2923 -.2923 .7447 -364.4 -792.35)" gradientUnits="userSpaceOnUse">
			<stop stop-color="#fff" stop-opacity=".949" offset="0"/>
			<stop stop-color="#ABD9DB" offset="1"/>
		</linearGradient>
		<path d="m23.915 20.438c-0.8-0.32-1.2-0.707-1.2-1.16 0.027-0.453 0.453-0.827 1.28-1.12 0.341-0.133 0.715-0.233 1.12-0.3-0.344 0.064-0.664 0.151-0.96 0.259-0.8 0.294-1.2 0.654-1.2 1.081-0.026 0.453 0.36 0.84 1.16 1.16 0.773 0.319 1.707 0.493 2.8 0.52 1.12 0.026 2.08-0.106 2.88-0.4 0.8-0.293 1.2-0.653 1.2-1.08 0.026-0.426-0.334-0.8-1.08-1.12-0.54-0.24-1.18-0.406-1.92-0.5 0.814 0.088 1.507 0.255 2.08 0.5 0.773 0.347 1.146 0.733 1.12 1.16-0.026 0.453-0.453 0.84-1.28 1.16-0.827 0.293-1.827 0.427-3 0.4-1.174-0.026-2.174-0.213-3-0.56z" fill="url(#bc)"/>
			<linearGradient id="bd" x1="510.38" x2="520.96" y1="1001.5" y2="1001.5" gradientTransform="matrix(.7997 .021 -.021 .7997 -364.4 -792.35)" gradientUnits="userSpaceOnUse">
			<stop stop-color="#fff" stop-opacity=".949" offset="0"/>
			<stop stop-color="#9AAFB8" offset="1"/>
		</linearGradient>
		<path d="m23.915 20.438c-0.8-0.32-1.2-0.707-1.2-1.16 0.027-0.453 0.453-0.827 1.28-1.12 0.36-0.14 0.753-0.246 1.18-0.32-0.351 0.072-0.677 0.166-0.979 0.28-0.773 0.267-1.174 0.613-1.2 1.041-0.026 0.427 0.347 0.8 1.12 1.12 0.773 0.294 1.707 0.453 2.8 0.48 1.094 0.053 2.04-0.067 2.84-0.36 0.773-0.293 1.16-0.653 1.16-1.08 0.027-0.427-0.347-0.787-1.12-1.08-0.387-0.16-0.813-0.287-1.279-0.379 0.543 0.094 1.036 0.234 1.479 0.419 0.826 0.32 1.227 0.707 1.2 1.16s-0.453 0.84-1.28 1.16c-0.827 0.293-1.827 0.427-3 0.4-1.175-0.027-2.175-0.214-3.001-0.561z" fill="url(#bd)"/>
		<path d="m22.034 12.998l0.76-0.4c0.8-0.293 1.854-0.507 3.16-0.64 1.493-0.16 2.88-0.067 4.16 0.28 0.64 0.187 1.133 0.373 1.479 0.56l-0.56 6.64c-0.106 0.213-0.347 0.427-0.72 0.64-0.8 0.427-1.934 0.627-3.4 0.6-1.52-0.026-2.667-0.24-3.44-0.64l-0.719-0.64c-0.134-1.92-0.253-3.146-0.36-3.68l-0.36-2.72z" fill="#A78A56"/>
		<path d="m23.434 15.278l-1.2-0.6-0.2-1.68c0.081 0 0.227 0.066 0.44 0.2 0.187 0.16 0.48 0.267 0.88 0.319l0.879 0.32 0.88 0.16c0.213 0.053 0.88 0.08 2 0.08h0.96l0.199-0.04c0.055-0.026 0.107-0.066 0.16-0.12 0.027-0.027 0.054-0.093 0.081-0.2 0.026-0.08 0.079-0.12 0.159-0.12 0.027 0.24 0.12 0.414 0.28 0.52l0.479 0.121c0.188 0.026 0.281 0.133 0.281 0.32 0 0.319-0.294 0.546-0.881 0.68-0.373 0.133-0.813 0.227-1.319 0.279-0.587 0.027-1.041 0.041-1.36 0.041-1.305 1e-3 -2.211-0.093-2.718-0.28z" fill="#CBA769"/>
			<linearGradient id="be" x1="-478.44" x2="-475.94" y1="-1010.9" y2="-1010.9" gradientTransform="matrix(-.8 .0077 -.0077 -.8 -364.4 -792.35)" gradientUnits="userSpaceOnUse">
			<stop stop-color="#C1A064" offset="0"/>
			<stop stop-color="#706341" offset="1"/>
		</linearGradient>
		<path d="m25.714 12.398c0.133 0 0.2 0.053 0.2 0.16 0 0.08-0.041 0.159-0.121 0.24-0.053 0.053-0.24 0.08-0.56 0.08h-1.24c-0.026-0.213 0.147-0.347 0.521-0.4 0.187-0.027 0.439-0.053 0.759-0.08h0.441z" fill="url(#be)"/>
			<linearGradient id="bf" x1="-475.47" x2="-473.75" y1="-1013.8" y2="-1013.8" gradientTransform="matrix(-.7999 .0113 -.0113 -.7999 -364.4 -792.35)" gradientUnits="userSpaceOnUse">
			<stop stop-color="#C1A064" offset="0"/>
			<stop stop-color="#706341" offset="1"/>
		</linearGradient>
		<path d="m25.874 13.318c-0.053-0.16 0.041-0.24 0.28-0.24 0.133-0.027 0.307-0.027 0.52 0l0.521 0.04c-0.08 0.16-0.16 0.254-0.24 0.281h-0.399l-0.682-0.081z" fill="url(#bf)"/>
			<linearGradient id="bh" x1="-490.49" x2="-489.91" y1="-1006" y2="-1006" gradientTransform="matrix(-.8 0 0 -.8 -364.4 -792.35)" gradientUnits="userSpaceOnUse">
			<stop stop-color="#C1A064" offset="0"/>
			<stop stop-color="#706341" offset="1"/>
		</linearGradient>
		<path d="m27.515 12.358l0.159-0.041c0.134 0 0.213 0.041 0.24 0.12-0.133 0.053-0.267 0.053-0.399 0-0.028-0.025-0.028-0.052 0-0.079z" fill="url(#bh)"/>
			<linearGradient id="bi" x1="-486.62" x2="-482.87" y1="-1010.5" y2="-1010.5" gradientTransform="matrix(-.8 .0077 -.0077 -.8 -364.4 -792.35)" gradientUnits="userSpaceOnUse">
			<stop stop-color="#C1A064" offset="0"/>
			<stop stop-color="#706341" offset="1"/>
		</linearGradient>
		<path d="m29.515 12.358c-0.134-0.081-0.174-0.173-0.12-0.28 0.613 0.133 1.066 0.253 1.359 0.36h-0.12c-0.213 0.027-0.399 0.04-0.56 0.04-0.266 0-0.453-0.04-0.559-0.12z" fill="url(#bi)"/>
			<linearGradient id="bj" x1="-494.61" x2="-493.79" y1="-1006.4" y2="-1006.4" gradientTransform="matrix(-.8 0 0 -.8 -364.4 -792.35)" gradientUnits="userSpaceOnUse">
			<stop stop-color="#C1A064" offset="0"/>
			<stop stop-color="#706341" offset="1"/>
		</linearGradient>
		<path d="m30.594 12.838l-0.039-0.12 0.64-0.04c-0.054 0.187-0.254 0.24-0.601 0.16z" fill="url(#bj)"/>
		<path d="m22.754 19.398c-0.134-1.92-0.253-3.146-0.36-3.68l-0.36-2.72 0.88 0.68c0.879 0.453 2.013 0.681 3.4 0.681l3.319-0.041c-0.133-0.106-0.253-0.213-0.36-0.32-0.187-0.24-0.227-0.4-0.119-0.48 0.106-0.08 0.373-0.066 0.8 0.041 0.24 0.053 0.453 0.106 0.64 0.159 0.453-0.159 0.773-0.466 0.961-0.919h0.039l-0.56 6.64c-0.106 0.213-0.347 0.427-0.72 0.64-0.8 0.427-1.934 0.627-3.4 0.6-1.52-0.026-2.667-0.24-3.44-0.64l-0.72-0.641z" fill="#A58D54"/>
		<path d="m27.314 19.238c-0.054-0.107-0.146-0.16-0.28-0.16l-0.16-0.2c-0.214 0.293-0.24 0.494-0.08 0.6 0.16 0.133 0.334 0.053 0.52-0.24zm0.72-1.92c-0.08 0.16-0.093 0.36-0.04 0.6 0.107 0.054 0.2 0.054 0.279 0 0.081-0.266 0.041-0.413-0.119-0.439l-0.12-0.161zm0-2.2c-0.214 0.027-0.293 0.2-0.24 0.521 0.054 0.32 0.174 0.507 0.36 0.56 0.16 0.026 0.267-0.081 0.319-0.32 0.027-0.347-0.066-0.6-0.279-0.76h-0.16zm-3.76 4.52c-0.053-0.187-0.093-0.293-0.12-0.32-0.16-0.08-0.28-0.173-0.36-0.28-0.293 0.187-0.573 0.173-0.84-0.04l-0.24-0.28-0.08-1 0.24 0.36c0.213 0.213 0.413 0.294 0.6 0.24l0.281-0.28c0.24 0.4 0.56 0.653 0.96 0.76 0.106 0.026 0.293 0.053 0.56 0.08 0.187 0.026 0.28 0.133 0.28 0.32 0.187 0.053 0.333 0.026 0.44-0.081 0.026-0.213 0.093-0.346 0.2-0.4 0.079 0.16 0.279 0.16 0.6 0 0-0.346 0.147-0.56 0.44-0.64 0.08-0.026 0.187-0.053 0.32-0.08 0.079-0.026 0.133-0.12 0.16-0.28 0.105-0.24 0.093-0.479-0.041-0.72-0.053-0.133-0.133-0.227-0.24-0.28-0.105-0.08-0.187-0.053-0.239 0.081-0.187-0.027-0.347-0.187-0.479-0.48-0.081-0.346-0.16-0.587-0.241-0.72-0.239-0.347-0.653-0.653-1.24-0.92-0.213-0.08-0.426-0.213-0.64-0.4l-0.121-0.08c0.694 0.106 1.307 0.16 1.841 0.16l3.24-0.041c0.026 0.133 0.105 0.241 0.239 0.32 0.107 0.107 0.227 0.147 0.36 0.12 0.187-0.027 0.307-0.12 0.36-0.28v-0.8l0.079 0.04 0.04-0.04c0 0.613-0.093 0.974-0.279 1.081-0.16 0.106-0.387 0.146-0.681 0.12-0.346-0.053-0.506-0.173-0.479-0.36-0.4-0.08-0.707-0.119-0.921-0.119h-1.319c0.773 0.106 1.36 0.293 1.761 0.56 0.133 0.08 0.279 0.24 0.439 0.479 0.347 0.24 0.52 0.493 0.52 0.76 0 0.133-0.119 0.333-0.359 0.6-0.213 0.24-0.32 0.44-0.32 0.6 0 0.08 0.04 0.187 0.12 0.32 0 0.081-0.08 0.241-0.24 0.48-0.054 0.106-0.12 0.213-0.2 0.319l0.08 0.4c0 0.268-0.08 0.428-0.239 0.48-0.134 0.053-0.268 0.04-0.4-0.04-0.16-0.081-0.28-0.134-0.36-0.16l-0.239 0.28-0.2 0.04-0.12 0.16c-0.134 0.081-0.347 0.121-0.64 0.121-0.214 0.187-0.427 0.279-0.64 0.279-0.081 0-0.521-0.08-1.32-0.24-0.08-0.026-0.134-0.04-0.16-0.04-0.056 1e-3 -0.109-0.052-0.163-0.159z" fill="#8B7347"/>
		<path d="m30.314 14.438c0.08-0.133 0.106-0.293 0.08-0.479-0.027-0.134-0.054-0.213-0.08-0.241l-0.24-0.08c-0.356-0.15-0.623-0.21-0.801-0.18 0.238-0.05 0.651 0.023 1.241 0.219v0.8c-0.054 0.16-0.174 0.253-0.36 0.28-0.134 0.027-0.253-0.013-0.36-0.12 0.214 0.054 0.387-0.012 0.52-0.199z" fill="#615031"/>
		<path d="m29.794 16.838h-0.32c-0.159 0.027-0.239 0.16-0.239 0.4 0 0.213 0.066 0.347 0.199 0.4 0.24 0.08 0.387 0.013 0.44-0.2 0.027-0.16 0-0.36-0.08-0.6zm-6 2.2c0.08 0.107 0.2 0.2 0.36 0.28 0.026 0.027 0.066 0.133 0.12 0.32 0.054 0.107 0.107 0.16 0.16 0.16 0.026 0 0.081 0.013 0.16 0.04 0.8 0.16 1.24 0.24 1.32 0.24 0.213 0 0.426-0.093 0.64-0.279 0.293 0 0.506-0.04 0.64-0.121l0.12-0.16 0.2-0.04 0.239-0.28c0.08 0.026 0.2 0.08 0.36 0.16 0.133 0.08 0.267 0.093 0.4 0.04 0.159-0.053 0.239-0.213 0.239-0.48l-0.08-0.4c0.08-0.106 0.146-0.213 0.2-0.319 0.16-0.24 0.24-0.4 0.24-0.48-0.08-0.133-0.12-0.24-0.12-0.32 0-0.16 0.107-0.36 0.32-0.6 0.24-0.267 0.359-0.467 0.359-0.6 0-0.267-0.173-0.521-0.52-0.76-0.16-0.24-0.307-0.4-0.439-0.479-0.4-0.267-0.987-0.454-1.761-0.56h1.319c0.214 0 0.521 0.04 0.921 0.119-0.026 0.187 0.134 0.307 0.479 0.36 0.294 0.026 0.521-0.013 0.681-0.12 0.187-0.107 0.279-0.467 0.279-1.081l0.16-0.08 0.12 0.56c0 0.24-0.04 0.493-0.12 0.76-0.053 0.213-0.079 0.547-0.079 1 0 0.16-0.027 0.293-0.081 0.4l-0.239 0.32c-0.027 0.08-0.04 0.374-0.04 0.879 0.026 0.187 0.079 0.427 0.16 0.72-0.081 0.453-0.2 0.721-0.36 0.8-0.026 0.026-0.12 0.08-0.28 0.16-0.106 0.026-0.173 0.106-0.2 0.24-0.213 0-0.453 0.093-0.72 0.28-0.373 0.267-0.587 0.413-0.64 0.44-0.213 0.08-0.494 0.12-0.841 0.12h-0.84l-1.319-0.04-0.641-0.08c-0.319-0.187-0.546-0.293-0.68-0.32l-0.64-0.16c-0.213-0.133-0.4-0.213-0.561-0.24h-0.04l-0.04-0.72 0.24 0.28c0.272 0.214 0.552 0.228 0.845 0.041z" fill="#735E39"/>
		<path d="m23.594 20.118c-0.453-0.213-0.734-0.44-0.84-0.68h0.04c0.16 0.026 0.347 0.107 0.561 0.24l0.64 0.16c0.134 0.027 0.36 0.134 0.68 0.32l0.641 0.08 1.319 0.04h0.84c0.347 0 0.628-0.04 0.841-0.12 0.053-0.027 0.267-0.173 0.64-0.44 0.267-0.187 0.507-0.28 0.72-0.28 0.027-0.134 0.094-0.213 0.2-0.24 0.16-0.081 0.254-0.134 0.28-0.16 0.16-0.08 0.279-0.347 0.36-0.8-0.081-0.293-0.134-0.533-0.16-0.72 0-0.506 0.013-0.8 0.04-0.879l0.239-0.32c0.054-0.106 0.081-0.24 0.081-0.4 0-0.453 0.026-0.787 0.079-1 0.08-0.267 0.12-0.52 0.12-0.76l-0.12-0.56c0.374-0.187 0.627-0.453 0.761-0.8h0.039l-0.32 2.879c-0.159 0-0.239 0.174-0.239 0.521 0.053 0.187 0.106 0.293 0.16 0.319l-0.16 2.92c-0.106 0.213-0.347 0.427-0.72 0.64-0.8 0.427-1.934 0.627-3.4 0.6-1.442-0.027-2.548-0.214-3.322-0.56z" fill="#4D4027"/>
			<linearGradient id="bk" x1="-1063.4" x2="-1061.4" y1="355.14" y2="355.14" gradientTransform="matrix(-.0998 -.7937 .7937 -.0998 -364.4 -792.35)" gradientUnits="userSpaceOnUse">
			<stop stop-color="#C1A064" offset="0"/>
			<stop stop-color="#706341" offset="1"/>
		</linearGradient>
		<path d="m23.594 16.278c-0.134 0.053-0.267 0-0.4-0.16-0.134-0.159-0.213-0.346-0.24-0.559-0.053-0.213-0.04-0.414 0.04-0.6 0.08-0.187 0.2-0.294 0.36-0.32 0.347-0.053 0.56 0.2 0.64 0.76 0.053 0.213 0.026 0.413-0.08 0.6-0.08 0.159-0.186 0.252-0.32 0.279z" fill="url(#bk)"/>
			<linearGradient id="bl" x1="-1065.1" x2="-1062.6" y1="358.13" y2="358.13" gradientTransform="matrix(-.0992 -.7938 .7938 -.0992 -364.4 -792.35)" gradientUnits="userSpaceOnUse">
			<stop stop-color="#C1A064" offset="0"/>
			<stop stop-color="#706341" offset="1"/>
		</linearGradient>
		<path d="m25.954 17.478c-0.533 0.213-0.947 0.026-1.24-0.56-0.293-0.56-0.2-0.987 0.28-1.28h0.28c0.293-0.027 0.494-0.013 0.6 0.04 0.187 0.081 0.294 0.268 0.32 0.561 0.16 0.692 0.079 1.106-0.24 1.239z" fill="url(#bl)"/>
			<linearGradient id="bm" x1="-1064.6" x2="-1063.5" y1="357.52" y2="357.52" gradientTransform="matrix(-.0983 -.7939 .7939 -.0983 -364.4 -792.35)" gradientUnits="userSpaceOnUse">
			<stop stop-color="#C1A064" offset="0"/>
			<stop stop-color="#706341" offset="1"/>
		</linearGradient>
		<path d="m23.714 17.438c-0.054-0.107-0.067-0.24-0.041-0.4 0.027-0.16 0.094-0.253 0.2-0.28l0.32 0.08c0.213 0.08 0.279 0.36 0.2 0.84-0.372 0.053-0.599-0.027-0.679-0.24z" fill="url(#bm)"/>
			<linearGradient id="bn" x1="-1059.7" x2="-1059.1" y1="369.01" y2="369.01" gradientTransform="matrix(-.0885 -.7951 .7951 -.0885 -364.4 -792.35)" gradientUnits="userSpaceOnUse">
			<stop stop-color="#C1A064" offset="0"/>
			<stop stop-color="#706341" offset="1"/>
		</linearGradient>
		<path d="m22.554 17.038c0.24-0.053 0.333 0.107 0.28 0.479l-0.24 0.041-0.04-0.52z" fill="url(#bn)"/>
		<path d="m28.154 16.198c-0.187-0.053-0.307-0.24-0.36-0.56s0.026-0.493 0.24-0.521h0.16c0.213 0.16 0.307 0.414 0.279 0.76-0.052 0.241-0.159 0.348-0.319 0.321z" fill="#705C39"/>
			<linearGradient id="bo" x1="-1065" x2="-1063.7" y1="357.91" y2="357.91" gradientTransform="matrix(-.102 -.7935 .7935 -.102 -364.4 -792.35)" gradientUnits="userSpaceOnUse">
			<stop stop-color="#C1A064" offset="0"/>
			<stop stop-color="#706341" offset="1"/>
		</linearGradient>
		<path d="m28.154 16.198c-0.187-0.053-0.307-0.24-0.36-0.56s0.026-0.493 0.24-0.521h0.16c0.213 0.16 0.307 0.414 0.279 0.76-0.052 0.241-0.159 0.348-0.319 0.321z" fill="url(#bo)"/>
		<path d="m28.154 17.478c0.16 0.026 0.2 0.173 0.119 0.439-0.079 0.054-0.172 0.054-0.279 0-0.053-0.24-0.04-0.439 0.04-0.6l0.12 0.161z" fill="#705C39"/>
			<linearGradient id="bp" x1="-1068.1" x2="-1067.3" y1="354.81" y2="354.81" gradientTransform="matrix(-.1041 -.7932 .7932 -.1041 -364.4 -792.35)" gradientUnits="userSpaceOnUse">
			<stop stop-color="#C1A064" offset="0"/>
			<stop stop-color="#706341" offset="1"/>
		</linearGradient>
		<path d="m28.154 17.478c0.16 0.026 0.2 0.173 0.119 0.439-0.079 0.054-0.172 0.054-0.279 0-0.053-0.24-0.04-0.439 0.04-0.6l0.12 0.161z" fill="url(#bp)"/>
		<path d="m27.034 19.078c0.134 0 0.227 0.053 0.28 0.16-0.187 0.293-0.36 0.374-0.521 0.24-0.16-0.106-0.134-0.307 0.08-0.6l0.161 0.2z" fill="#705C39"/>
			<linearGradient id="bq" x1="-1072.8" x2="-1072" y1="367.37" y2="367.37" gradientTransform="matrix(-.0935 -.7945 .7926 -.1101 -364.4 -792.35)" gradientUnits="userSpaceOnUse">
			<stop stop-color="#C1A064" offset="0"/>
			<stop stop-color="#706341" offset="1"/>
		</linearGradient>
		<path d="m27.034 19.078c0.134 0 0.227 0.053 0.28 0.16-0.187 0.293-0.36 0.374-0.521 0.24-0.16-0.106-0.134-0.307 0.08-0.6l0.161 0.2z" fill="url(#bq)"/>
		<path d="m29.474 16.838h0.32c0.08 0.24 0.107 0.44 0.08 0.6-0.054 0.213-0.2 0.28-0.44 0.2-0.133-0.053-0.199-0.187-0.199-0.4-1e-3 -0.24 0.079-0.373 0.239-0.4z" fill="#615031"/>
			<linearGradient id="bs" x1="-1063.7" x2="-1062.7" y1="369.3" y2="369.3" gradientTransform="matrix(-.0946 -.7944 .7944 -.0946 -364.4 -792.35)" gradientUnits="userSpaceOnUse">
			<stop stop-color="#C1A064" offset="0"/>
			<stop stop-color="#706341" offset="1"/>
		</linearGradient>
		<path d="m29.474 16.838h0.32c0.08 0.24 0.107 0.44 0.08 0.6-0.054 0.213-0.2 0.28-0.44 0.2-0.133-0.053-0.199-0.187-0.199-0.4-1e-3 -0.24 0.079-0.373 0.239-0.4z" fill="url(#bs)"/>
		<path d="m31.034 16.198c0-0.347 0.08-0.521 0.239-0.521l-0.079 0.84c-0.053-0.026-0.107-0.132-0.16-0.319z" fill="#4D4027"/>
			<linearGradient id="bt" x1="-1067.8" x2="-1066.7" y1="374.44" y2="374.44" gradientTransform="matrix(-.0924 -.7946 .7931 -.1057 -364.4 -792.35)" gradientUnits="userSpaceOnUse">
			<stop stop-color="#C1A064" offset="0"/>
			<stop stop-color="#706341" offset="1"/>
		</linearGradient>
		<path d="m31.034 16.198c0-0.347 0.08-0.521 0.239-0.521l-0.079 0.84c-0.053-0.026-0.107-0.132-0.16-0.319z" fill="url(#bt)"/>
		<path d="m29.114 13.758c-0.027-0.054-0.027-0.12 0-0.2 0.133-0.16 0.453-0.134 0.96 0.08l0.24 0.08c0.026 0.027 0.053 0.107 0.08 0.241 0.026 0.187 0 0.346-0.08 0.479-0.134 0.187-0.307 0.253-0.521 0.2-0.134-0.187-0.213-0.293-0.239-0.32h0.079l-0.399-0.4-0.12-0.16z" fill="#615031"/>
			<linearGradient id="bu" x1="-1062.9" x2="-1061.4" y1="361.69" y2="361.69" gradientTransform="matrix(-.1009 -.7936 .7936 -.1009 -364.4 -792.35)" gradientUnits="userSpaceOnUse">
			<stop stop-color="#C1A064" offset="0"/>
			<stop stop-color="#706341" offset="1"/>
		</linearGradient>
		<path d="m29.114 13.758c-0.027-0.054-0.027-0.12 0-0.2 0.133-0.16 0.453-0.134 0.96 0.08l0.24 0.08c0.026 0.027 0.053 0.107 0.08 0.241 0.026 0.187 0 0.346-0.08 0.479-0.134 0.187-0.307 0.253-0.521 0.2-0.134-0.187-0.213-0.293-0.239-0.32h0.079l-0.399-0.4-0.12-0.16z" fill="url(#bu)"/>
		<radialGradient id="bv" cx="1134.8" cy="-200.22" r="20.443" gradientTransform="matrix(.2048 .7733 .7861 -.2081 -52.178 -875.02)" gradientUnits="userSpaceOnUse">
		<stop stop-color="#FBF5E2" offset="0"/>
		<stop stop-color="#F6F0DB" offset=".0706"/>
		<stop stop-color="#E3DCC1" offset=".4314"/>
		<stop stop-color="#D7D0B1" offset=".749"/>
		<stop stop-color="#D3CCAC" offset="1"/>
	</radialGradient>
	<path d="m19.834 54.877l-1.44-0.919c-0.8-0.747-1.307-1.841-1.52-3.28-0.293-2.027-0.04-4.106 0.76-6.24l1.28-2.64c1.893 1.093 4.653 1.587 8.28 1.479 1.813-0.053 3.427-0.213 4.84-0.479l0.56 1.92c0.4 1.467 0.627 2.693 0.68 3.68 0.134 1.573-0.119 3.813-0.759 6.72-0.294 0.214-0.841 0.414-1.641 0.6-1.601 0.374-3.693 0.468-6.28 0.281-1.866-0.135-3.453-0.509-4.76-1.122z" fill="url(#bv)"/>
		<radialGradient id="bw" cx="1150.9" cy="-76.516" r="11.598" gradientTransform="matrix(.2871 .7467 .7467 -.2871 -250.13 -836.29)" gradientUnits="userSpaceOnUse">
		<stop stop-color="#9A8EBC" offset="0"/>
		<stop stop-color="#978BB9" offset=".0392"/>
		<stop stop-color="#7F749F" offset=".4078"/>
		<stop stop-color="#70668F" offset=".7412"/>
		<stop stop-color="#6B6189" offset="1"/>
	</radialGradient>
	<path d="m24.034 53.438c-1.306-1.066-2.04-1.68-2.2-1.84-1.066-0.96-1.813-1.773-2.24-2.439-0.479-0.801-0.521-1.627-0.12-2.48 0.4-0.854 1.013-1.307 1.84-1.36 0.693-0.026 1.453 0.347 2.28 1.12 0.426 0.373 0.787 0.747 1.08 1.12 0.241-0.294 0.747-0.773 1.521-1.44 0.56-0.479 1.279-0.626 2.16-0.439 0.8 0.16 1.36 0.507 1.68 1.039 0.373 0.614 0.521 1.281 0.439 2-0.106 0.907-0.6 1.721-1.479 2.441-1.279 1.039-2.6 2.186-3.96 3.439-0.054-0.242-0.388-0.628-1.001-1.161z" fill="url(#bw)"/>
</g>
</svg>
