<?xml version="1.0" encoding="UTF-8"?>
<svg enable-background="new 0 0 41 41" version="1.1" viewBox="0 0 41 41" xmlns="http://www.w3.org/2000/svg">
 <style type="text/css">.st0{fill:#FFFFFF;} .st1{fill:#111111;} .st2{fill:#FFFFFF;stroke:#000000;stroke-width:2;stroke-miterlimit:10;} .st3{fill:#FFFFFF;stroke:#000000;stroke-miterlimit:10;} .st4{fill:none;stroke:#000000;stroke-miterlimit:10;} .st5{fill:none;stroke:#000000;stroke-width:3;stroke-linecap:round;stroke-miterlimit:10;} .st6{fill:#FFFFFF;stroke:#000000;stroke-linejoin:round;stroke-miterlimit:10;}</style>
 <path d="M17.5,3h3C21.3,3,22,3.7,22,4.5v2C22,7.3,21.3,8,20.5,8h-3C16.7,8,16,7.3,16,6.5v-2C16,3.7,16.7,3,17.5,3z"/>
 <path class="st3" d="m21.5 15.7v-5.2c0-0.6 0.4-1 1-1s1-0.4 1-1v-2c0-0.6-0.4-1-1-1h-7c-0.6 0-1 0.4-1 1v2c0 0.6 0.4 1 1 1s1 0.4 1 1v5.3c0 0.3-0.1 0.6-0.3 0.7-2 1.7-10.2 6.6-10.2 12.5 0 7.2 5.8 10 13 10s13-2.8 13-10c0-5.5-8-11.1-10-12.5-0.3-0.2-0.5-0.5-0.5-0.8z"/>
 <path d="M10.1,23.7C8.9,25.1,8,26.8,8,28.5c0,6.1,4.9,8.5,11,8.5s11-2.4,11-8.5c0-1.6-0.8-3.2-1.9-4.7"/>
 <path class="st3" d="m28.1 16.1l-1.7 2.5c-0.2 0.3-0.3 0.7-0.2 1l2.4 8.9c0.2 0.6 0.8 1 1.5 0.9l4.4-1.2c0.6-0.2 1-0.8 0.9-1.5l-2.4-8.9c-0.1-0.3-0.3-0.6-0.6-0.8l-2.7-1.3c-0.6-0.3-1.3-0.1-1.6 0.4z"/>
 <path d="m29 17.5c-0.2 0-0.3-0.1-0.4-0.2-1.7-2.6-5.1-4.4-5.7-4.8h-7.9c-0.3 0-0.5-0.2-0.5-0.5s0.2-0.5 0.5-0.5h8.1l0.1 0.1c0.2 0.1 4.1 2.1 6.2 5.2 0.2 0.2 0.1 0.5-0.1 0.7h-0.3z"/>
</svg>
